<svg width="20" height="20" viewBox="0 0 20 20" fill="none" xmlns="http://www.w3.org/2000/svg">
<path d="M4.34286 20C1.95714 20 0 18.0714 0 15.7143V15.5714L0.428571 4.14286C0.5 1.78571 2.45714 0 4.78571 0H15.2143C17.5286 0 19.4857 1.78571 19.5571 4.14286L19.9857 15.5714C20.0571 16.7143 19.6286 17.7857 18.8286 18.6429C18.0286 19.5 16.9429 20 15.7857 20H4.34286ZM4.78571 1.42857C3.18571 1.42857 1.95714 2.64286 1.88571 4.14286L1.45714 15.7143C1.45714 17.2857 2.75714 18.5714 4.35714 18.5714H15.8C16.6 18.5714 17.3143 18.2143 17.8286 17.6429C18.3429 17.0714 18.6286 16.3571 18.6286 15.5714L18.2 4.14286C18.1286 2.57143 16.9 1.42857 15.3 1.42857H4.78571Z" fill="#603C59"/>
<path d="M10 8.57143C7.17143 8.57143 4.92857 6.35714 4.92857 3.57143C4.92857 3.14286 5.21429 2.85714 5.65714 2.85714C6.1 2.85714 6.38571 3.14286 6.38571 3.57143C6.38571 5.57143 7.98572 7.14286 10.0143 7.14286C12.0429 7.14286 13.6429 5.57143 13.6429 3.57143C13.6429 3.14286 13.9286 2.85714 14.3714 2.85714C14.8143 2.85714 15.1 3.14286 15.1 3.57143C15.1 6.35714 12.8571 8.57143 10.0286 8.57143H10Z" fill="#603C59"/>
</svg>
