<svg width="150" height="51" viewBox="0 0 150 51" fill="none" xmlns="http://www.w3.org/2000/svg">
<path d="M29.3103 20.5174C30.4549 20.5174 31.2301 21.4202 31.2301 22.7691V25.3849C31.2301 28.6316 31.7764 30.0267 32.6036 30.0267C33.2435 30.0267 33.9771 29.3035 34.7991 28.1341L35.0748 28.2675C33.9302 30.1139 32.5151 30.9243 31.2821 30.9243C29.4091 30.9243 27.8536 29.2112 27.8536 26.462V22.9486C27.8536 22.6357 27.9472 22.2716 27.6246 22.2716C26.4801 22.2716 26.1627 31.3295 17.4795 31.3295C14.5556 31.3295 12.2664 29.6164 12.2664 26.1492C12.2664 18.712 28.4935 21.5997 28.4935 13.4445C28.4935 9.6592 24.9713 8.12561 21.6832 8.12561C19.2172 8.12561 16.1996 8.936 16.8864 13.0803C16.9332 13.2598 16.9332 13.3932 16.9332 13.5317C16.9332 14.66 16.1996 15.1986 15.3776 15.1986C14.4619 15.1986 13.5047 14.4754 13.5047 12.9931C13.5047 9.61304 18.1662 7.76658 22.6925 7.76658C26.8963 7.76658 30.9179 9.3412 30.9179 12.8597C30.9179 20.1122 15.6533 19.0351 15.6533 26.1953C15.6533 28.4931 17.2974 29.6626 19.3993 29.6626C22.37 29.6626 24.9765 28.5803 26.7558 22.6768C27.12 21.3227 28.1293 20.5123 29.2687 20.5123H29.3155L29.3103 20.5174Z" fill="#603C59"/>
<path d="M61.8997 10.0182C64.8236 10.0182 67.4769 12.0032 67.7475 15.5166V27.6366C67.8411 29.0317 68.5695 30.3858 70.0783 30.4319H70.1719V30.791H62.4928V30.4319C64.0952 30.4319 64.8704 28.9445 64.8704 27.5032V15.968C64.8704 14.3933 64.7351 12.6802 63.4085 11.7775C62.7685 11.3723 61.9933 11.1466 61.1245 11.1466C60.1672 11.1466 59.1579 11.4185 58.1538 11.8237C56.7387 12.4546 55.6409 13.5829 54.7721 14.7985C54.8189 15.1576 54.8657 15.2961 54.8657 15.6551V27.6417C54.9594 29.0368 55.6877 30.3909 57.1965 30.4371H57.2433V30.7961H49.611V30.4371C51.2135 30.4371 51.9418 28.9496 51.9887 27.5084V16.1526C51.9887 14.5318 51.8534 12.6854 50.5267 11.7826C49.8868 11.3774 49.1116 11.1518 48.2427 11.1518C47.2855 11.1518 46.2293 11.4236 45.272 11.8288C43.8985 12.4597 42.8476 13.4958 41.9788 14.6652V27.6417C42.0256 29.0368 42.8008 30.4371 44.3564 30.4371V30.7961H36.6773V30.4371C38.3213 30.4371 39.0549 28.9496 39.1017 27.5084V13.7214C39.1017 12.1878 38.2329 11.3774 36.6773 11.3313V10.9723C38.0924 10.9723 40.4232 10.8389 41.5677 10.0285H41.9788V14.0856C42.6187 13.1418 43.3939 12.4186 44.3095 11.7416C45.6362 10.7055 47.0982 10.0747 48.6538 10.0285H49.0648C51.6713 10.0285 54.0021 11.6083 54.6888 14.3985C55.4224 13.229 56.286 12.4597 57.2017 11.7416C58.5284 10.7055 59.9903 10.0747 61.5459 10.0285H61.9101L61.8997 10.0182Z" fill="#603C59"/>
<path d="M74.3756 13.4445C74.3756 11.957 73.46 11.1928 71.998 11.1928V10.7876C72.8669 10.7876 73.6889 10.7414 74.3756 10.6543C75.5202 10.4747 76.3422 10.2029 76.8885 9.84386H77.2527V27.5084C77.3464 28.9035 78.0747 30.3037 79.6771 30.3037V30.6627H71.998V30.3037C73.6005 30.3037 74.3756 28.8163 74.3756 27.375V13.4445Z" fill="#603C59"/>
<path d="M77.3255 4.4173L76.3994 4.15572C75.5514 3.91978 74.8855 3.26326 74.6462 2.42722L74.3808 1.51425C74.3444 1.42705 74.2403 1.38089 74.1519 1.4168C74.1103 1.43218 74.0739 1.46809 74.0531 1.51425L73.7877 2.42722C73.5484 3.26326 72.8825 3.91978 72.0344 4.15572L71.1084 4.4173C71.0199 4.44295 70.9679 4.53527 70.9887 4.62246C71.0043 4.67888 71.0511 4.71992 71.1084 4.74043L72.0344 5.00202C72.8825 5.23795 73.5484 5.89447 73.7877 6.73051L74.0531 7.64349C74.0791 7.73068 74.1727 7.78197 74.2612 7.76145C74.3184 7.74607 74.36 7.69991 74.3808 7.64349L74.6462 6.73051C74.8855 5.89447 75.5514 5.23795 76.3994 5.00202L77.3255 4.74043C77.414 4.71479 77.466 4.62246 77.4452 4.53527C77.4296 4.47885 77.3827 4.43782 77.3255 4.4173Z" fill="#603C59"/>
<path d="M97.2725 16.1475C97.2725 14.5267 97.1372 12.6802 95.8106 11.7775C95.1706 11.3723 94.3954 11.1466 93.5266 11.1466C92.5641 11.1466 91.5132 11.4185 90.5091 11.8237C88.9535 12.5469 87.7204 13.8958 86.8048 15.2909V27.6366C86.8516 29.0317 87.6268 30.4319 89.1824 30.4319V30.791H81.5033V30.4319C83.1473 30.4319 83.8809 28.9445 83.9277 27.5032V13.7163C83.9277 12.1827 83.0589 11.3723 81.5033 11.3261V10.9671C82.9184 10.9671 85.2492 10.8338 86.3938 10.0234H86.8048V14.8447C87.5331 13.4496 88.5425 12.5469 89.5934 11.7365C90.8732 10.7004 92.382 10.0695 93.9324 10.0234H94.2966C97.2205 10.0234 99.8738 12.0083 100.144 15.5217V27.6417C100.191 29.0368 100.92 30.3909 102.475 30.4371H102.522V30.7961H94.8429V30.4371C96.4869 30.4371 97.2205 28.9496 97.2673 27.5084V16.1526L97.2725 16.1475Z" fill="#603C59"/>
<path d="M123 20.5174C124.144 20.5174 124.919 21.4202 124.919 22.7691V25.3849C124.919 28.6316 125.466 30.0267 126.293 30.0267C126.933 30.0267 127.666 29.3035 128.488 28.1341L128.764 28.2675C127.619 30.1139 126.204 30.9243 124.971 30.9243C123.098 30.9243 121.543 29.2112 121.543 26.462V22.9486C121.543 22.6357 121.636 22.2716 121.314 22.2716C120.169 22.2716 119.852 31.3295 111.169 31.3295C108.245 31.3295 105.961 29.6164 105.961 26.1492C105.961 18.712 122.188 21.5997 122.188 13.4445C122.188 9.6592 118.671 8.12561 115.378 8.12561C112.912 8.12561 109.894 8.936 110.581 13.0803C110.628 13.2598 110.628 13.3932 110.628 13.5317C110.628 14.66 109.894 15.1986 109.072 15.1986C108.156 15.1986 107.199 14.4754 107.199 12.9931C107.199 9.61304 111.861 7.76658 116.387 7.76658C120.591 7.76658 124.612 9.3412 124.612 12.8597C124.612 20.1122 109.348 19.0351 109.348 26.1953C109.348 28.4931 110.992 29.6626 113.094 29.6626C116.064 29.6626 118.671 28.5803 120.455 22.6768C120.82 21.3227 121.829 20.5123 122.968 20.5123H123.015L123 20.5174Z" fill="#603C59"/>
<path d="M34.7887 50.9944C23.0931 50.7174 20.008 33.0067 6.3146 31.9296H4.75381L1.6062 31.8988H0.0454102V31.4372C0.607296 31.4065 2.07444 31.4372 2.07444 30.3601C2.26174 21.5689 2.29295 12.6187 2.16809 3.82746C2.04323 2.8119 1.0131 2.8119 0.107842 2.8119V2.31951L0.139058 2.28873H8.30721C8.33843 2.28873 8.33843 2.31951 8.33843 2.31951V2.8119C7.40195 2.8119 6.37183 2.8119 6.27818 3.82746C6.1221 12.5879 6.18453 21.3535 6.18453 30.1447C20.2525 31.6834 22.4948 49.1479 34.8147 50.2814C48.352 50.743 49.6266 34.3249 37.1247 33.9864C30.9491 33.8017 27.9264 39.7361 33.384 41.7672C35.1633 42.3827 34.8823 44.6907 33.2279 44.6907C32.9469 44.6907 32.6036 44.5984 32.229 44.4445C25.4291 40.6029 29.5808 33.1298 37.031 33.2529C50.5059 33.4376 49.6318 51.3637 34.7835 50.9944H34.7887Z" fill="#603C59"/>
<path d="M149.949 30.4781V30.791H139.757V30.4781H140.538C141.635 30.4781 142.182 30.0267 142.182 29.3497C142.182 29.0317 142.093 28.6727 141.911 28.2675L138.738 22.5588C136.911 24.2719 134.96 25.6055 133.545 27.3186C133.088 27.8982 132.817 28.447 132.817 28.9394C132.817 29.8421 133.733 30.473 135.288 30.473H135.652V30.7858H128.296V30.473H128.525C129.898 30.473 131.355 29.7036 132.271 28.4008C133.779 26.3748 136.069 24.1181 138.394 21.9126L135.71 16.3373C134.919 14.6908 134.05 13.0803 133.051 11.5467C131.574 9.28478 129.862 7.18186 127.687 5.40208C122.36 1.25266 114.077 0.642301 108.333 4.37113C104.145 7.15622 102.402 11.398 104.411 15.2089C104.681 15.7218 105.019 16.2347 105.441 16.7271C105.826 17.1989 106.283 17.6554 106.804 18.0965L106.684 18.2607C105.711 17.6349 104.931 16.9579 104.322 16.2449C100.769 12.1417 102.876 6.88438 107.553 3.30942C109.795 1.63734 112.423 0.601269 115.164 0.149911C123.202 -0.865645 129.675 3.59665 130.231 3.99671C133.259 6.16118 135.044 8.7052 136.006 10.326L140.824 19.2403C144.986 15.4961 148.95 12.5776 148.95 10.9979C148.95 9.51559 147.624 8.43336 146.344 8.43336C145.199 8.43336 144.06 9.33607 144.06 11.6288C144.06 12.711 143.332 13.2496 142.598 13.2496C141.818 13.2496 141.042 12.711 141.042 11.6288C141.042 9.37711 143.555 8.02303 145.798 8.02303C147.624 8.02303 149.268 8.92575 149.268 10.9979C149.268 12.7623 145.553 15.9474 141.412 19.5891C141.318 19.6711 141.23 19.7532 141.131 19.8353L145.704 28.2572C146.443 29.5651 147.946 30.4678 149.455 30.4678H149.954L149.949 30.4781Z" fill="#603C59"/>
</svg>
