<svg width="320" height="100" viewBox="0 0 320 100" fill="none" xmlns="http://www.w3.org/2000/svg">
<path d="M111.86 59.3193C111.829 57.1565 110.688 55.264 109.021 54.1905C110.193 53.3158 110.759 52.6718 111.192 51.8925C113.929 46.9943 110.956 39.2971 108.785 35.52C106.181 30.9637 102.94 28.5623 99.5029 28.5623C99.3063 28.5623 99.1332 28.5623 98.9366 28.5941C99.4007 25.5248 98.3702 22.1135 95.8295 18.6307C92.3921 13.9392 85.8084 8.87405 79.5628 8.87405C77.7615 8.87405 76.1254 9.27958 74.686 10.0588C74.2848 8.19815 73.3173 6.4806 71.8149 5.20038C68.0078 1.89249 62.3286 0 56.2876 0C50.2466 0 45.0314 1.68575 41.1929 4.69148C39.423 6.04326 38.2904 7.96756 37.8892 10.0588C36.4497 9.24777 34.8136 8.84224 33.0123 8.84224C26.6331 8.84224 19.6167 14.2096 16.2501 19.2748C14.1499 22.4793 13.2767 25.7236 13.7094 28.626C13.5127 28.5941 13.3082 28.5941 13.0722 28.5941C12.8048 28.5941 12.4744 28.5941 12.1362 28.6578C6.05583 29.3337 2.51617 37.5398 1.54866 40.0048C0.282251 43.3842 -1.35386 49.5945 1.91836 53.3397C2.11501 53.5782 2.38245 53.8088 2.64989 54.0474C1.41494 55.0254 0.179994 56.8146 0.109201 60.0906C0.0462732 62.9294 1.04524 70.5232 6.18955 72.2487C6.457 72.3521 6.72444 72.4475 6.96041 72.5509C6.39407 73.9027 6.26035 75.3896 6.63004 76.8368C7.73127 80.9558 11.5069 84.7408 15.7781 86.0528C18.2795 86.8639 20.8516 87.1978 23.3608 87.5397C26.0353 87.9135 28.6074 88.2793 31.0065 89.1301C33.5079 90.0445 36.2531 91.6587 39.1556 93.3842C44.3314 96.4933 50.2072 100 56.5236 100H56.8932C62.3679 99.8966 68.2831 96.4854 74.0252 93.249C77.3997 91.3247 80.8686 89.3289 83.543 88.486C85.1162 87.9771 87.0826 87.7067 89.1514 87.4046C94.6968 86.6253 102.28 85.5439 105.253 78.3556C105.984 76.5347 105.922 74.4354 105.088 72.6861C107.66 71.541 108.997 70.5948 109.831 69.4815C112.104 66.4122 111.97 62.7306 111.9 60.027L111.868 59.3193H111.86ZM73.0498 74.8489C83.0002 68.1616 93.454 60.1622 105.379 58.0312C106.244 57.8642 107.046 58.5401 107.046 59.4148C107.117 61.8798 107.377 64.6788 105.945 66.5712C104.411 68.6625 87.7434 73.4574 83.6688 75.2465C80.1921 76.7653 76.5895 78.4192 73.5847 80.7808C73.2858 80.9796 73.5218 81.4567 73.8522 81.3216L90.3863 75.7475C93.1944 75.1749 95.861 73.9901 98.6691 73.6562C100.242 73.4892 101.375 75.0398 100.809 76.4949C98.0713 83.1107 88.5142 81.7589 82.072 83.8184C74.387 86.3152 64.0355 94.9905 56.791 95.1256C48.5711 95.2926 40.3906 87.2933 32.6112 84.5261C27.3331 82.6654 21.8899 82.8721 17.1782 81.417C14.6375 80.6377 12.0025 78.2443 11.2631 75.5407C10.9956 74.5308 11.798 73.5528 12.8363 73.5846C15.4713 73.6482 17.9806 74.499 20.5213 75.1749L38.2904 81.1864C38.6601 81.3216 38.8882 80.8127 38.5893 80.6139C29.3704 74.1651 18.1457 71.7001 7.7942 67.6527C5.22205 66.945 3.85338 58.1981 5.89065 57.729C11.1372 56.4806 30.4716 68.5989 35.4508 72.042C35.7811 72.2805 41.7278 76.8686 40.5243 74.0697C40.2883 73.4971 35.8126 69.8871 34.9473 69.1078C28.5366 63.3667 20.0886 58.0312 12.6396 53.7134C11.2395 52.8705 6.12663 50.8111 5.52882 50.1034C2.82294 47.0658 8.26615 34.0013 12.6789 33.4924C13.6464 33.3572 13.9139 33.6275 14.6847 34.0331C16.9187 35.1463 24.5014 42.5095 26.578 44.7042C32.4224 50.9542 36.7014 58.3095 41.775 65.1002C42.1447 65.5375 42.4436 66.1816 42.8133 66.6905C43.2459 67.263 44.1505 66.7939 43.946 66.0862C43.3088 63.8915 42.0109 61.6333 40.9726 59.6692C35.0575 48.362 26.8769 38.5337 18.7278 28.8406C16.0219 22.0579 31.3526 9.3591 36.6936 15.2036C38.4319 17.1279 42.7739 31.2102 43.8437 34.6533C46.4158 43.1298 47.816 52.8864 50.4589 60.8858C50.6556 61.4583 50.7578 61.9672 51.159 62.2058C51.5602 62.4761 52.0636 62.0706 52.0242 61.6015C50.0499 45.1256 46.8485 28.8486 42.7031 12.8181C42.2705 11.2675 42.8369 9.57379 44.1033 8.56393C50.5848 3.57029 62.5724 3.6021 68.7157 8.8979C69.9192 9.94752 70.3833 11.6015 69.9192 13.152C65.3412 28.952 62.541 45.229 60.5981 61.5697C60.5273 62.0786 61.0307 62.4443 61.4633 62.2137C61.8645 62.0149 61.9982 61.506 62.1634 60.8938C63.831 54.8823 64.7041 48.5051 66.4031 42.4618C67.7089 37.8022 73.5139 17.7481 75.9209 15.2115C81.3327 9.47042 96.0262 21.9625 94.0597 28.4431C86.3118 37.7624 78.3987 47.0499 72.5543 57.7847C71.8542 59.1046 67.8426 66.7621 68.3775 67.438C69.1798 68.4478 69.7776 67.0642 69.9821 66.7939C74.9927 59.9714 79.2639 52.2106 84.9116 45.8572C86.7837 43.7341 97.4027 33.4288 99.5029 33.4288C103.947 33.4288 109.091 45.7856 107.015 49.499C106.213 50.9144 95.0587 56.5204 92.518 58.1107C87.5782 61.2516 81.3327 65.6727 77.0221 69.6565C76.4873 70.1972 73.6477 72.861 72.6172 74.3798C72.4206 74.6819 72.7509 75.0557 73.0498 74.8489Z" fill="#603C59"/>
<path d="M67.0636 78.3238C67.1501 78.6418 66.9771 78.952 66.6624 79.0474L63.5003 79.9459C60.6529 80.757 58.3796 83.055 57.5773 85.9335L56.6885 89.1301C56.6413 89.313 56.4682 89.4481 56.2873 89.5356C55.9727 89.6231 55.6659 89.4481 55.5715 89.1301L54.6827 85.9335C53.8803 83.055 51.6071 80.757 48.7596 79.9459L45.5975 79.0474C45.4166 78.9599 45.2436 78.8247 45.1964 78.6419C45.1098 78.3238 45.2829 78.0137 45.5975 77.9182L48.7596 77.0197C51.6071 76.1609 53.8803 73.9106 54.6827 70.9844L55.5715 67.8356C55.6187 67.6527 55.7524 67.5652 55.8861 67.4777C56.2008 67.3425 56.5547 67.5254 56.6885 67.8356L57.5773 70.9844C58.3796 73.9106 60.6529 76.1609 63.5003 77.0197L66.6624 77.9182C66.8434 77.966 67.0164 78.1011 67.0636 78.3238Z" fill="#603C59"/>
<path d="M166.103 43.4796C167.559 43.4796 168.55 44.6565 168.55 46.4297V49.8489C168.55 54.0951 169.25 55.916 170.296 55.916C171.114 55.916 172.042 54.9698 173.096 53.4431L173.442 53.618C171.987 56.0353 170.178 57.0929 168.605 57.0929C166.213 57.0929 164.231 54.8505 164.231 51.2564V46.6603C164.231 46.2468 164.349 45.7777 163.94 45.7777C162.485 45.7777 162.076 57.6256 150.993 57.6256C147.264 57.6256 144.346 55.3833 144.346 50.8508C144.346 41.1259 165.049 44.895 165.049 34.2319C165.049 29.278 160.558 27.2742 156.357 27.2742C153.211 27.2742 149.357 28.3317 150.238 33.7548C150.293 33.9933 150.293 34.1683 150.293 34.3432C150.293 35.8142 149.357 36.5219 148.311 36.5219C147.146 36.5219 145.919 35.5757 145.919 33.6355C145.919 29.2144 151.866 26.7971 157.64 26.7971C163.004 26.7971 168.133 28.8566 168.133 33.4606C168.133 42.9469 148.657 41.5394 148.657 50.9065C148.657 53.9122 150.757 55.4469 153.439 55.4469C157.231 55.4469 160.55 54.0315 162.823 46.3104C163.287 44.5452 164.569 43.4796 166.033 43.4796H166.103Z" fill="#603C59"/>
<path d="M207.675 29.7471C211.403 29.7471 214.786 32.3394 215.139 36.9354V52.791C215.257 54.6199 216.186 56.3852 218.113 56.4488H218.231V56.9179H208.438V56.4488C210.475 56.4488 211.474 54.5006 211.474 52.6161V37.5239C211.474 35.4644 211.301 33.222 209.61 32.0452C208.792 31.5124 207.801 31.2182 206.691 31.2182C205.464 31.2182 204.182 31.5681 202.9 32.1008C201.091 32.9278 199.691 34.3989 198.582 35.9892C198.637 36.4583 198.7 36.6412 198.7 37.1104V52.791C198.818 54.6199 199.746 56.3852 201.673 56.4488H201.728V56.9179H191.99V56.4488C194.027 56.4488 194.963 54.5006 195.018 52.6161V37.7624C195.018 35.6393 194.845 33.222 193.154 32.0452C192.336 31.5124 191.345 31.2182 190.236 31.2182C189.009 31.2182 187.672 31.5681 186.445 32.1008C184.698 32.9278 183.353 34.2796 182.244 35.8142V52.791C182.299 54.6199 183.29 56.4488 185.273 56.4488V56.9179H175.48V56.4488C177.58 56.4488 178.516 54.5006 178.571 52.6161V34.5817C178.571 32.5779 177.462 31.5204 175.48 31.4567V30.9876C177.289 30.9876 180.262 30.8127 181.717 29.7471H182.244V35.0509C183.062 33.8104 184.053 32.8721 185.218 31.9895C186.909 30.6298 188.773 29.8107 190.755 29.7471H191.282C194.609 29.7471 197.583 31.8066 198.456 35.4644C199.392 33.9297 200.493 32.9278 201.665 31.9895C203.356 30.6298 205.221 29.8107 207.203 29.7471H207.675Z" fill="#603C59"/>
<path d="M223.587 34.2239C223.587 32.2758 222.423 31.2739 220.551 31.2739V30.7411C221.66 30.7411 222.706 30.6854 223.587 30.5662C225.043 30.3276 226.097 29.9777 226.797 29.5086H227.261V52.6161C227.379 54.445 228.307 56.2738 230.352 56.2738V56.743H220.559V56.2738C222.596 56.2738 223.595 54.3257 223.595 52.4412V34.2239H223.587Z" fill="#603C59"/>
<path d="M227.347 22.4157L226.167 22.0738C225.082 21.7637 224.24 20.9049 223.934 19.8155L223.595 18.6228C223.548 18.5035 223.414 18.4478 223.304 18.4955C223.249 18.5194 223.202 18.5671 223.178 18.6228L222.84 19.8155C222.533 20.9128 221.684 21.7637 220.606 22.0738L219.426 22.4157C219.308 22.4475 219.245 22.5668 219.277 22.6861C219.301 22.7576 219.356 22.8133 219.426 22.8371L220.606 23.1791C221.692 23.4892 222.533 24.348 222.84 25.4373L223.178 26.6301C223.21 26.7494 223.328 26.813 223.446 26.7812C223.517 26.7573 223.572 26.7017 223.595 26.6301L223.934 25.4373C224.24 24.34 225.09 23.4892 226.167 23.1791L227.347 22.8371C227.465 22.8053 227.528 22.6861 227.497 22.5668C227.473 22.4952 227.418 22.4396 227.347 22.4157Z" fill="#603C59"/>
<path d="M252.794 37.7624C252.794 35.6393 252.621 33.222 250.929 32.0452C250.111 31.5124 249.12 31.2182 248.011 31.2182C246.784 31.2182 245.447 31.5681 244.165 32.1008C242.183 33.0471 240.609 34.8123 239.445 36.6412V52.791C239.5 54.6199 240.491 56.4488 242.474 56.4488V56.9179H232.68V56.4488C234.781 56.4488 235.717 54.5006 235.772 52.6161V34.5817C235.772 32.5779 234.663 31.5204 232.68 31.4567V30.9876C234.49 30.9876 237.463 30.8127 238.918 29.7471H239.445V36.0528C240.381 34.2239 241.663 33.0471 243.001 31.9895C244.629 30.6298 246.556 29.8107 248.538 29.7471H249.002C252.731 29.7471 256.113 32.3394 256.467 36.9354V52.791C256.522 54.6199 257.458 56.3852 259.44 56.4488H259.495V56.9179H249.702V56.4488C251.803 56.4488 252.731 54.5006 252.794 52.6161V37.7624Z" fill="#603C59"/>
<path d="M285.618 43.4796C287.073 43.4796 288.064 44.6565 288.064 46.4297V49.8489C288.064 54.0951 288.764 55.916 289.811 55.916C290.629 55.916 291.557 54.9698 292.611 53.4431L292.957 53.618C291.502 56.0353 289.693 57.0929 288.119 57.0929C285.728 57.0929 283.746 54.8505 283.746 51.2564V46.6603C283.746 46.2468 283.864 45.7777 283.455 45.7777C282 45.7777 281.591 57.6256 270.508 57.6256C266.779 57.6256 263.861 55.3833 263.861 50.8508C263.861 41.1259 284.556 44.895 284.556 34.2319C284.556 29.278 280.065 27.2742 275.872 27.2742C272.726 27.2742 268.872 28.3317 269.753 33.7548C269.808 33.9933 269.808 34.1683 269.808 34.3432C269.808 35.8142 268.872 36.5219 267.825 36.5219C266.661 36.5219 265.434 35.5757 265.434 33.6355C265.434 29.2144 271.381 26.7971 277.154 26.7971C282.519 26.7971 287.647 28.8566 287.647 33.4606C287.647 42.9469 268.171 41.5394 268.171 50.9065C268.171 53.9122 270.272 55.4469 272.954 55.4469C276.745 55.4469 280.065 54.0315 282.346 46.3104C282.81 44.5452 284.092 43.4796 285.555 43.4796H285.618Z" fill="#603C59"/>
<path d="M173.088 83.3413C158.167 82.9755 154.234 59.8123 136.763 58.4049H134.773L130.754 58.3651H128.764V57.7608C129.48 57.7211 131.352 57.7608 131.352 56.3534C131.588 44.8473 131.627 33.1504 131.47 21.6444C131.312 20.3165 129.999 20.3165 128.843 20.3165V19.6724L128.882 19.6326H139.304C139.344 19.6326 139.344 19.6724 139.344 19.6724V20.3165C138.148 20.3165 136.834 20.3165 136.716 21.6444C136.52 33.1107 136.598 44.569 136.598 56.0751C154.54 58.0868 157.404 80.9319 173.12 82.4189C190.385 83.0232 192.022 61.5458 176.062 61.1005C168.18 60.862 164.326 68.6228 171.287 71.2786C173.552 72.0817 173.198 75.1034 171.09 75.1034C170.729 75.1034 170.296 74.9841 169.816 74.7853C161.14 69.7599 166.434 59.9873 175.944 60.1463C193.131 60.3849 192.022 83.8343 173.08 83.3572L173.088 83.3413Z" fill="#603C59"/>
<path d="M320 56.5124V56.9179H306.998V56.5124H307.997C309.397 56.5124 310.097 55.924 310.097 55.0413C310.097 54.6199 309.987 54.1587 309.751 53.626L305.7 46.1594C303.371 48.4017 300.878 50.1431 299.077 52.3855C298.495 53.1489 298.148 53.8566 298.148 54.5086C298.148 55.6854 299.313 56.5124 301.295 56.5124H301.759V56.9179H292.375V56.5124H292.666C294.412 56.5124 296.276 55.5025 297.441 53.8009C299.368 51.145 302.286 48.2029 305.251 45.3085L301.822 38.0169C300.807 35.862 299.706 33.7548 298.432 31.751C296.544 28.7929 294.365 26.0417 291.588 23.7198C284.792 18.2888 274.228 17.4936 266.897 22.368C261.556 26.0099 259.33 31.5601 261.894 36.5458C262.241 37.2137 262.673 37.8896 263.208 38.5337C263.704 39.146 264.286 39.7424 264.946 40.3228L264.789 40.5375C263.546 39.7185 262.555 38.8359 261.776 37.9055C257.246 32.5382 259.928 25.66 265.898 20.9844C268.754 18.7977 272.112 17.438 275.605 16.8496C285.854 15.5216 294.113 21.3581 294.829 21.883C298.691 24.7137 300.972 28.0455 302.199 30.1686L308.343 41.8257C313.652 36.9275 318.71 33.1107 318.71 31.0433C318.71 29.1031 317.019 27.6877 315.383 27.6877C313.928 27.6877 312.464 28.8645 312.464 31.8702C312.464 33.2856 311.536 33.9933 310.6 33.9933C309.601 33.9933 308.618 33.2856 308.618 31.8702C308.618 28.9202 311.827 27.1549 314.683 27.1549C317.011 27.1549 319.111 28.3317 319.111 31.0433C319.111 33.3492 314.376 37.5159 309.09 42.2789C308.972 42.3823 308.854 42.4936 308.736 42.597L314.573 53.61C315.509 55.3197 317.428 56.4965 319.355 56.4965H319.992L320 56.5124Z" fill="#603C59"/>
<path d="M194.373 70.0541H196.458C196.82 70.0541 197.134 70.1097 197.402 70.229C197.669 70.3483 197.874 70.5153 198.015 70.73C198.157 70.9446 198.228 71.1991 198.228 71.4774C198.228 71.7796 198.157 72.034 198.023 72.2408C197.882 72.4475 197.701 72.6066 197.457 72.7099C197.779 72.8212 198.031 73.0041 198.212 73.2506C198.401 73.4971 198.487 73.8231 198.487 74.2207C198.487 74.5706 198.409 74.8728 198.259 75.1272C198.11 75.3817 197.89 75.5805 197.606 75.7156C197.323 75.8508 196.985 75.9224 196.592 75.9224H194.381V70.0541H194.373ZM197.245 72.2567C197.433 72.1056 197.52 71.875 197.52 71.5808C197.52 71.2866 197.425 71.0639 197.245 70.9128C197.056 70.7618 196.788 70.6902 196.434 70.6902H195.081V72.4952H196.434C196.788 72.4952 197.056 72.4157 197.245 72.2646V72.2567ZM197.433 75C197.654 74.8171 197.764 74.5547 197.764 74.2048C197.764 73.855 197.654 73.5846 197.433 73.4017C197.213 73.2188 196.891 73.1234 196.466 73.1234H195.081V75.2783H196.466C196.891 75.2783 197.213 75.1829 197.433 75Z" fill="#603C59"/>
<path d="M200.399 70.0541H204.033V70.6982H201.115V72.5668H203.49V73.2109H201.115V75.2704H204.127V75.9144H200.407V70.0461L200.399 70.0541Z" fill="#603C59"/>
<path d="M207.675 70.0541H208.32L210.624 75.9224H209.885L207.997 70.9367L206.102 75.9224H205.362L207.675 70.0541ZM206.644 73.7039H209.342L209.492 74.34H206.495L206.644 73.7039Z" fill="#603C59"/>
<path d="M213.079 75.7395C212.748 75.5725 212.489 75.334 212.316 75.0159C212.135 74.7058 212.048 74.3321 212.048 73.9106V70.0541H212.748V73.9424C212.748 74.2287 212.811 74.4752 212.937 74.6899C213.063 74.9046 213.236 75.0636 213.464 75.1749C213.692 75.2863 213.952 75.3419 214.243 75.3419C214.699 75.3419 215.069 75.2147 215.336 74.9682C215.604 74.7217 215.745 74.3798 215.745 73.9424V70.0541H216.445V73.9106C216.445 74.3321 216.351 74.7058 216.17 75.0159C215.989 75.326 215.729 75.5725 215.407 75.7395C215.084 75.9065 214.691 75.994 214.251 75.994C213.81 75.994 213.433 75.9065 213.094 75.7395H213.079Z" fill="#603C59"/>
<path d="M219.851 70.6982H217.995V70.0541H222.423V70.6982H220.567V75.9224H219.851V70.6982Z" fill="#603C59"/>
<path d="M225.515 73.4653L223.462 70.0541H224.272L225.869 72.7815L227.465 70.0541H228.276L226.223 73.4653V75.9224H225.507V73.4653H225.515Z" fill="#603C59"/>
<path d="M233.672 70.0541L235.575 74.9602L237.487 70.0541H238.415V75.9224H237.723V71.2468L235.882 75.9224H235.268L233.428 71.2468V75.9224H232.736V70.0541H233.672Z" fill="#603C59"/>
<path d="M240.657 70.0541H244.291V70.6982H241.372V72.5668H243.748V73.2109H241.372V75.2704H244.385V75.9144H240.664V70.0461L240.657 70.0541Z" fill="#603C59"/>
<path d="M246.226 70.0541H249.86V70.6982H246.941V72.5668H249.317V73.2109H246.941V75.2704H249.954V75.9144H246.233V70.0461L246.226 70.0541Z" fill="#603C59"/>
<path d="M253.045 70.6982H251.189V70.0541H255.617V70.6982H253.761V75.9224H253.045V70.6982Z" fill="#603C59"/>
<path d="M257.733 75.7395C257.411 75.5725 257.159 75.3419 256.986 75.0477C256.805 74.7535 256.711 74.4036 256.687 73.9981H257.387C257.427 74.4195 257.568 74.7455 257.82 74.9841C258.072 75.2226 258.433 75.3419 258.913 75.3419C259.338 75.3419 259.676 75.2544 259.92 75.0875C260.164 74.9205 260.282 74.666 260.282 74.3161C260.282 74.0856 260.219 73.9027 260.085 73.7595C259.952 73.6164 259.786 73.513 259.59 73.4415C259.393 73.3699 259.126 73.2904 258.78 73.2029C258.371 73.0995 258.04 73.0041 257.796 72.9008C257.553 72.7974 257.332 72.6384 257.151 72.4157C256.97 72.201 256.884 71.9068 256.884 71.541C256.884 71.2309 256.97 70.9605 257.136 70.73C257.301 70.4994 257.537 70.3165 257.836 70.1813C258.135 70.0461 258.481 69.9825 258.858 69.9825C259.236 69.9825 259.582 70.0541 259.881 70.1972C260.18 70.3403 260.424 70.5391 260.597 70.8015C260.77 71.0639 260.88 71.3661 260.903 71.716H260.203C260.172 71.382 260.03 71.1196 259.786 70.9208C259.543 70.722 259.228 70.6266 258.85 70.6266C258.473 70.6266 258.158 70.7061 257.938 70.8731C257.718 71.0321 257.6 71.2548 257.6 71.541C257.6 71.7637 257.663 71.9466 257.796 72.0738C257.922 72.209 258.087 72.3123 258.284 72.3759C258.481 72.4475 258.748 72.5191 259.078 72.5986C259.503 72.702 259.842 72.7974 260.093 72.9008C260.345 73.0041 260.565 73.1711 260.746 73.3938C260.927 73.6164 261.021 73.9265 261.021 74.3082C261.021 74.6581 260.927 74.9523 260.754 75.2067C260.581 75.4612 260.321 75.652 260.007 75.7793C259.692 75.9065 259.322 75.978 258.913 75.978C258.457 75.978 258.064 75.8985 257.741 75.7315L257.733 75.7395Z" fill="#603C59"/>
<path d="M265.709 70.0541H267.794C268.156 70.0541 268.47 70.1097 268.738 70.229C269.005 70.3483 269.21 70.5153 269.351 70.73C269.493 70.9446 269.564 71.1991 269.564 71.4774C269.564 71.7796 269.493 72.034 269.359 72.2408C269.218 72.4475 269.037 72.6066 268.793 72.7099C269.115 72.8212 269.367 73.0041 269.548 73.2506C269.737 73.4971 269.823 73.8231 269.823 74.2207C269.823 74.5706 269.745 74.8728 269.595 75.1272C269.446 75.3817 269.226 75.5805 268.942 75.7156C268.659 75.8508 268.321 75.9224 267.928 75.9224H265.717V70.0541H265.709ZM268.573 72.2567C268.761 72.1056 268.848 71.875 268.848 71.5808C268.848 71.2866 268.754 71.0639 268.573 70.9128C268.384 70.7618 268.116 70.6902 267.762 70.6902H266.41V72.4952H267.762C268.116 72.4952 268.384 72.4157 268.573 72.2646V72.2567ZM268.769 75C268.99 74.8171 269.1 74.5547 269.1 74.2048C269.1 73.855 268.99 73.5846 268.769 73.4017C268.549 73.2188 268.227 73.1234 267.802 73.1234H266.417V75.2783H267.802C268.227 75.2783 268.549 75.1829 268.769 75Z" fill="#603C59"/>
<path d="M271.727 70.0541H273.929C274.307 70.0541 274.629 70.1177 274.913 70.2449C275.196 70.3721 275.408 70.555 275.55 70.8015C275.699 71.0401 275.77 71.3263 275.77 71.6603C275.77 72.0499 275.676 72.368 275.495 72.6304C275.314 72.8928 275.062 73.0836 274.747 73.2029C274.433 73.3301 274.079 73.3858 273.685 73.3858H272.443V75.9224H271.727V70.0541ZM274.661 73.7993C274.496 73.6164 274.275 73.5289 274.008 73.5289H272.309V72.9405H274.079C274.527 72.9405 274.889 73.0836 275.172 73.362C275.455 73.6403 275.613 74.006 275.644 74.4593L275.746 75.9144H275.054L274.952 74.499C274.928 74.2048 274.834 73.9742 274.669 73.7913L274.661 73.7993ZM274.566 72.7417C274.732 72.6384 274.858 72.5032 274.936 72.3362C275.015 72.1692 275.054 71.9784 275.054 71.7716C275.054 71.4615 274.96 71.1991 274.779 71.0003C274.59 70.7936 274.307 70.6982 273.929 70.6982H272.443V72.8928H273.929C274.189 72.8928 274.401 72.8451 274.574 72.7417H274.566Z" fill="#603C59"/>
<path d="M277.792 70.0541H278.507V75.9224H277.792V70.0541ZM277.792 70.6982V70.0541H278.507V70.6982H277.792ZM277.792 75.9224V75.2783H278.507V75.9224H277.792Z" fill="#603C59"/>
<path d="M280.741 70.0541H281.457V75.2783H284.36V75.9224H280.741V70.0541Z" fill="#603C59"/>
<path d="M285.98 70.0541H286.696V75.2783H289.598V75.9224H285.98V70.0541Z" fill="#603C59"/>
<path d="M291.219 70.0541H291.934V75.9224H291.219V70.0541ZM291.219 70.6982V70.0541H291.934V70.6982H291.219ZM291.219 75.9224V75.2783H291.934V75.9224H291.219Z" fill="#603C59"/>
<path d="M295.875 70.0541H296.52L298.825 75.9224H298.086L296.198 70.9367L294.302 75.9224H293.563L295.875 70.0541ZM294.853 73.7039H297.551L297.7 74.34H294.703L294.853 73.7039Z" fill="#603C59"/>
<path d="M300.469 70.0541H301.279L304.26 74.833V70.0541H304.976V75.9224H304.166L301.185 71.1593V75.9224H300.469V70.0541Z" fill="#603C59"/>
<path d="M308.296 75.652C307.871 75.4294 307.533 75.0875 307.273 74.6342C307.021 74.181 306.888 73.6323 306.888 72.9882C306.888 72.3441 307.013 71.7955 307.273 71.3422C307.533 70.889 307.871 70.5471 308.296 70.3244C308.72 70.1018 309.184 69.9825 309.688 69.9825C310.105 69.9825 310.49 70.062 310.844 70.229C311.198 70.388 311.489 70.6186 311.717 70.9049C311.945 71.1912 312.087 71.5172 312.134 71.875H311.395C311.363 71.6364 311.261 71.4297 311.104 71.2389C310.938 71.048 310.734 70.8969 310.482 70.7936C310.231 70.6822 309.963 70.6266 309.68 70.6266C309.279 70.6266 308.917 70.7141 308.602 70.8969C308.288 71.0798 308.044 71.3502 307.871 71.7001C307.698 72.0499 307.611 72.4793 307.611 72.9803C307.611 73.4812 307.698 73.9027 307.871 74.2605C308.044 74.6183 308.288 74.8807 308.602 75.0636C308.917 75.2465 309.271 75.334 309.68 75.334C309.979 75.334 310.254 75.2783 310.506 75.167C310.758 75.0557 310.962 74.9125 311.119 74.7217C311.277 74.5308 311.371 74.3161 311.403 74.0855H312.134C312.087 74.4434 311.953 74.7694 311.733 75.0557C311.505 75.3499 311.222 75.5725 310.86 75.7315C310.506 75.8906 310.113 75.978 309.688 75.978C309.177 75.978 308.712 75.8667 308.288 75.6361L308.296 75.652Z" fill="#603C59"/>
<path d="M314.03 70.0541H317.664V70.6982H314.746V72.5668H317.121V73.2109H314.746V75.2704H317.758V75.9144H314.038V70.0461L314.03 70.0541Z" fill="#603C59"/>
</svg>
