<svg width="44" height="25" viewBox="0 0 44 25" fill="none" xmlns="http://www.w3.org/2000/svg">
<path fill-rule="evenodd" clip-rule="evenodd" d="M31.3672 0.248814C35.182 1.09871 36.6413 3.24038 38.4708 6.18812H31.3672V0.248814ZM9.07312 6.43564C9.82004 6.43564 10.3622 6.78179 10.3622 7.59076C10.3622 8.27306 9.78714 8.82645 9.07681 8.82838H1.28906C0.577057 8.82838 0 9.38274 0 10.066C0 10.7496 0.577057 11.3036 1.28906 11.3036H12.8906C13.6093 11.3036 14.1847 11.8573 14.1847 12.5413C14.1847 13.2248 13.6077 13.7789 12.8957 13.7789H1.28906C0.577057 13.7789 0 14.3329 0 15.0165C0 15.7001 0.577057 16.2541 1.28906 16.2541H4.125V19.967C4.125 20.6506 4.70206 21.2046 5.41406 21.2046H8.00528C8.46719 23.3892 10.4777 25 12.8477 25C15.2177 25 17.2281 23.3892 17.69 21.2046H30.7787C31.2406 23.3892 33.2511 25 35.6211 25C37.9911 25 40.0016 23.3892 40.4635 21.2046H42.7109C43.4229 21.2046 44 20.6506 44 19.967V12.5413C44 8.90992 40.0106 8.66885 40.0069 8.66337H30.0781C29.3661 8.66337 28.7891 8.10934 28.7891 7.42574V0H5.41406C4.70206 0 4.125 0.55403 4.125 1.23762V3.9604H2.57812C1.86612 3.9604 1.28906 4.51443 1.28906 5.19802C1.28906 5.88161 1.86612 6.43564 2.57812 6.43564H9.07312ZM37.2922 18.6514C38.215 19.5374 38.215 20.9745 37.2922 21.8605C35.8077 23.2857 33.2578 22.2717 33.2578 20.2558C33.2578 18.2401 35.8077 17.2262 37.2922 18.6514ZM14.5187 18.6514C15.4416 19.5374 15.4416 20.9745 14.5187 21.8605C13.0343 23.2857 10.4844 22.2717 10.4844 20.2558C10.4844 18.2401 13.0343 17.2262 14.5187 18.6514Z" fill="#CE967E"/>
</svg>
