<svg width="7" height="10" viewBox="0 0 7 10" fill="none" xmlns="http://www.w3.org/2000/svg">
<path d="M6.96167 3.41453C6.93113 3.35707 6.88435 3.3082 6.82623 3.27302C6.76811 3.23784 6.70077 3.21764 6.63125 3.21454H3.89072L5.13465 0.503922C5.16254 0.446953 5.17464 0.384529 5.1699 0.322215C5.16515 0.259902 5.14369 0.199637 5.10744 0.146793C5.07322 0.0994538 5.02622 0.0610783 4.97103 0.0354143C4.91584 0.00975045 4.85435 -0.00232433 4.79257 0.000369393H2.5807C2.50969 0.00350836 2.44097 0.0244791 2.38203 0.0610001C2.32309 0.0975212 2.27617 0.148194 2.2464 0.207505L0.03842 4.85019C0.00961435 4.90679 -0.00334046 4.96911 0.000732794 5.03148C0.00480605 5.09384 0.0257782 5.15429 0.0617437 5.20732C0.0968106 5.25752 0.146092 5.29801 0.204302 5.32443C0.262512 5.35086 0.327454 5.36222 0.392163 5.35731H2.83726L1.49226 9.5393C1.46487 9.61811 1.46811 9.70322 1.50144 9.78008C1.53476 9.85694 1.59609 9.92079 1.67497 9.96072C1.72795 9.98567 1.78647 9.99911 1.84601 10C1.90272 9.99775 1.95822 9.98412 2.00859 9.96005C2.05895 9.93599 2.10297 9.90209 2.13755 9.86072L6.92668 3.78952C6.9676 3.73524 6.99236 3.67208 6.99849 3.6063C7.00463 3.54052 6.99194 3.47441 6.96167 3.41453Z" fill="white"/>
</svg>
