<svg width="18" height="18" viewBox="0 0 18 18" fill="none" xmlns="http://www.w3.org/2000/svg">
<path d="M11.6855 13.2666C12.6946 13.2667 13.5466 13.9797 13.7559 14.9287L13.8418 15.3213H17.4375C17.4724 15.3213 17.4998 15.3492 17.5 15.3828C17.5 15.4166 17.4725 15.4453 17.4375 15.4453H13.8418L13.7559 15.8379C13.547 16.7872 12.6969 17.4999 11.6855 17.5C10.6742 17.5 9.82412 16.7872 9.61523 15.8379L9.52832 15.4453H0.5625C0.527525 15.4453 0.5 15.4166 0.5 15.3828C0.500163 15.3492 0.527628 15.3213 0.5625 15.3213H9.52832L9.61523 14.9287C9.82438 13.9795 10.6757 13.2666 11.6855 13.2666ZM6.31445 6.88281C7.32591 6.88281 8.17598 7.59646 8.38477 8.5459L8.47168 8.93848H17.4375C17.4725 8.93848 17.5 8.96626 17.5 9C17.5 9.03376 17.4725 9.06152 17.4375 9.06152H8.47168L8.38477 9.4541C8.17563 10.4033 7.32429 11.1172 6.31445 11.1172C5.30538 11.1171 4.45339 10.4032 4.24414 9.4541L4.1582 9.06152H0.5625C0.527525 9.06152 0.5 9.03376 0.5 9C0.5 8.96626 0.527545 8.93848 0.5625 8.93848H4.1582L4.24414 8.5459C4.45292 7.59652 5.30308 6.88291 6.31445 6.88281ZM6.31445 7.00684C5.28442 7.00694 4.43448 7.79077 4.33105 8.79395L4.32031 8.99707V9.0127C4.32755 10.1064 5.22076 10.9931 6.31445 10.9932C7.41081 10.9932 8.30489 10.1032 8.30859 9.00684V8.99512C8.30596 7.89749 7.41252 7.00684 6.31445 7.00684ZM11.6855 0.5C12.6945 0.500098 13.5465 1.2132 13.7559 2.16211L13.8418 2.55469H17.4375C17.4725 2.55469 17.5 2.58345 17.5 2.61719C17.4998 2.65078 17.4723 2.67871 17.4375 2.67871H13.8418L13.7559 3.07129C13.5471 4.0207 12.6969 4.7333 11.6855 4.7334C10.6741 4.7334 9.82403 4.02074 9.61523 3.07129L9.52832 2.67871H0.5625C0.527661 2.67871 0.500182 2.65078 0.5 2.61719C0.5 2.58345 0.527545 2.55469 0.5625 2.55469H9.52832L9.61523 2.16211C9.8245 1.21306 10.6758 0.5 11.6855 0.5ZM11.6855 0.624023C10.5894 0.624023 9.69546 1.51329 9.69141 2.60938V2.62109C9.6939 3.71881 10.5874 4.60938 11.6855 4.60938C12.7155 4.60927 13.5653 3.82615 13.6689 2.82324L13.6797 2.62012V2.60449C13.6726 1.51061 12.7793 0.624135 11.6855 0.624023ZM13.6797 15.3711C13.6728 14.277 12.7795 13.3907 11.6855 13.3906C10.5893 13.3906 9.69527 14.2798 9.69141 15.376V15.3877C9.6939 16.4854 10.5874 17.376 11.6855 17.376C12.7842 17.3759 13.6781 16.4842 13.6797 15.3857V15.3711Z" fill="#B63D5E" stroke="#B63D5E"/>
</svg>
