<svg width="26" height="21" viewBox="0 0 26 21" fill="none" xmlns="http://www.w3.org/2000/svg">
<path d="M6.80626 5.44949L7.96482 7.92027C8.0577 8.11899 8.29235 8.2018 8.48626 8.1074L10.9174 6.92997C11.113 6.83558 11.1961 6.59546 11.1016 6.39673C11.0071 6.19801 10.7724 6.11355 10.5769 6.2096L9.0028 6.97303C10.2575 2.55642 14.7956 0.00946152 19.1398 1.28294C23.484 2.55642 25.9901 7.16678 24.7371 11.5817C24.2776 13.1997 23.3471 14.6371 22.0664 15.7052C21.8985 15.8443 21.8741 16.0944 22.0109 16.265C22.0419 16.3047 22.081 16.3362 22.125 16.361C22.2651 16.4405 22.4395 16.4239 22.5633 16.3213C26.391 13.1251 26.945 7.38207 23.8001 3.49042C20.6568 -0.39792 15.0058 -0.960966 11.1765 2.23515C9.78658 3.39602 8.77142 4.95434 8.26465 6.70807L7.51183 5.10669C7.43035 4.903 7.20223 4.8053 7.0018 4.8881C6.80137 4.9709 6.70523 5.20274 6.78671 5.40643C6.79323 5.42134 6.79974 5.43459 6.80626 5.44783V5.44949Z" fill="#603C59"/>
<path d="M22.3173 16.5796C22.226 16.5796 22.1332 16.5564 22.0484 16.5084C21.9865 16.4736 21.9327 16.4289 21.8887 16.3726L21.8757 16.356C21.6948 16.1159 21.7339 15.7715 21.9653 15.5777C23.2249 14.5261 24.1309 13.1285 24.5823 11.5354C25.1754 9.44216 24.9326 7.23965 23.8963 5.33357C22.8599 3.42749 21.1555 2.04471 19.0958 1.44192C14.9634 0.231368 10.6388 2.55973 9.2733 6.65839L10.5101 6.05891C10.6437 5.99432 10.7952 5.98604 10.9354 6.03572C11.0755 6.0854 11.1879 6.18808 11.2515 6.32387C11.315 6.45966 11.3232 6.61367 11.2743 6.75609C11.2254 6.89851 11.1244 7.01277 10.9891 7.07736L8.55795 8.25479C8.28257 8.38893 7.95016 8.26969 7.81817 7.98983L6.66124 5.52236C6.65146 5.50414 6.64331 5.48592 6.63517 5.46771C6.57976 5.3286 6.57976 5.17459 6.63843 5.03714C6.69546 4.89804 6.803 4.79039 6.93988 4.73409C7.22341 4.61651 7.54768 4.75562 7.66174 5.04377L8.23369 6.25928C8.78282 4.63307 9.75888 3.20393 11.0722 2.10598C14.9634 -1.14313 20.7302 -0.56849 23.9256 3.38609C27.1226 7.34067 26.5572 13.2013 22.666 16.4488C22.5633 16.5332 22.4395 16.5763 22.3157 16.5763L22.3173 16.5796ZM22.1413 16.1656C22.1641 16.1904 22.1837 16.2053 22.2049 16.2169C22.288 16.2633 22.389 16.255 22.4607 16.1938C26.2134 13.0606 26.7576 7.41022 23.6763 3.5964C20.5933 -0.215758 15.0335 -0.770524 11.2808 2.36267C9.91042 3.50698 8.92133 5.02555 8.42108 6.75443L8.3005 7.1701L7.36517 5.17956C7.31303 5.05205 7.17941 4.99408 7.06372 5.04377C6.9464 5.09179 6.891 5.22758 6.93825 5.34682C6.94151 5.3551 6.94477 5.36338 6.94966 5.37166L6.95454 5.37994L8.11311 7.85072C8.13918 7.90703 8.1848 7.94843 8.24346 7.96995C8.30212 7.99148 8.36242 7.98651 8.41782 7.96002L10.849 6.78259C10.9044 6.75609 10.9468 6.70807 10.9663 6.65011C10.9859 6.59049 10.9826 6.52756 10.9565 6.47125C10.9305 6.41495 10.8832 6.37189 10.8262 6.35202C10.7675 6.33049 10.7056 6.33546 10.6502 6.36196L8.7486 7.28436L8.84963 6.92997C9.46721 4.75231 10.8832 2.9489 12.8353 1.85261C14.7875 0.756327 17.0427 0.499644 19.1854 1.12728C21.3282 1.75491 23.1027 3.19399 24.1814 5.1779C25.2601 7.16182 25.5127 9.45375 24.8951 11.6314C24.4242 13.2891 23.4824 14.7431 22.1723 15.8377C22.0745 15.9189 22.0598 16.0662 22.1397 16.1639L22.1429 16.1689L22.1413 16.1656Z" fill="#603C59"/>
<path d="M20.1191 14.599C19.3353 13.6584 18.0513 14.089 17.3588 14.3208C16.9205 14.4682 15.8694 14.917 14.8331 15.3641C14.895 15.0279 14.8526 14.6802 14.7125 14.3688C14.152 13.0705 12.7702 13.3189 11.7599 13.5011C11.4487 13.5706 11.1309 13.6104 10.8132 13.622C10.2738 13.6153 9.74096 13.4978 9.24722 13.2742C8.60684 12.9943 7.91431 12.8585 7.21689 12.8767C5.88235 12.9016 4.56735 13.2013 3.3485 13.7561L3.12852 13.8472C1.31002 14.5841 0.526241 14.7497 0.526241 14.7497C0.377959 14.7795 0.259006 14.8938 0.223158 15.0445C0.210122 15.1024 -0.0978499 16.4372 0.773923 18.3135C1.52185 19.9049 2.39689 20.516 2.99816 20.7362C3.12526 20.7826 3.2654 20.7594 3.37132 20.6749C3.37132 20.6749 3.86342 20.2775 4.2382 20.0539C4.48751 19.8999 5.09205 19.8039 6.57162 20.2212C7.94038 20.5921 9.34825 20.7958 10.7643 20.8323C11.3167 20.8505 11.8658 20.7743 12.3938 20.6054C13.9385 20.0092 17.6961 18.0187 19.1757 17.2039C19.9594 16.77 20.3847 16.3031 20.4841 15.7731C20.5493 15.3459 20.4141 14.912 20.1208 14.599H20.1191ZM19.7118 15.6274C19.6629 15.8957 19.3386 16.2087 18.7992 16.5067C17.5576 17.1973 13.655 19.2756 12.1184 19.8635C11.0397 20.2725 8.32494 19.8916 6.78182 19.4661C6.16588 19.269 5.52712 19.1564 4.88022 19.1282C4.51358 19.11 4.15021 19.1961 3.8292 19.375C3.56522 19.5389 3.26377 19.7608 3.07312 19.9049C2.48651 19.6068 1.9276 18.9295 1.47949 17.9707C1.09167 17.194 0.910799 16.3295 0.954795 15.4601C1.79235 15.2117 2.61524 14.917 3.4202 14.5775L3.64507 14.4847C4.77267 13.9664 5.99315 13.6898 7.23156 13.6683C7.82958 13.6518 8.42434 13.7727 8.97021 14.0211C9.54705 14.2777 10.1695 14.4135 10.7985 14.4185C11.1684 14.4069 11.535 14.3622 11.8968 14.286C12.9755 14.0873 13.7039 14.0128 13.9939 14.6835C14.0933 14.8921 14.1047 15.1339 14.0232 15.3492C13.9141 15.6241 13.6322 15.8741 13.1889 16.0778C12.7979 16.2451 12.5046 16.3743 12.3742 16.4256C11.5448 16.7551 10.8295 16.6409 10.1386 16.5283L9.75888 16.4687C9.54216 16.4388 9.34336 16.5929 9.31403 16.8131C9.2847 17.0334 9.43624 17.2354 9.65297 17.2652C9.77192 17.2818 9.89413 17.3016 10.0147 17.3215C10.7724 17.4424 11.6295 17.5798 12.6594 17.1725C12.7783 17.1244 13.0178 17.0234 13.334 16.8843C13.3926 16.8611 13.4497 16.8363 13.5051 16.8114L14.0102 16.5929C15.2845 16.0364 17.0313 15.2713 17.6048 15.0809C18.5157 14.7762 19.1528 14.6835 19.5195 15.1173C19.7557 15.4005 19.7232 15.5744 19.7118 15.6324V15.6274Z" fill="#603C59"/>
<path d="M10.9272 21.0012C10.8718 21.0012 10.8164 21.0012 10.761 20.9979C9.33522 20.9631 7.91105 20.7544 6.53088 20.3818C5.03339 19.9595 4.50543 20.0837 4.32456 20.1964C3.96119 20.4116 3.47886 20.8008 3.47397 20.8041C3.32243 20.925 3.12363 20.9581 2.94276 20.8919C2.31541 20.6617 1.40453 20.039 0.627269 18.3847C-0.265686 16.4604 0.0520623 15.0643 0.0667277 15.0064C0.118871 14.7944 0.286708 14.6305 0.496911 14.5891C0.503429 14.5891 1.2921 14.4135 3.06986 13.6948L3.28821 13.6037C4.52825 13.039 5.85139 12.7376 7.21526 12.7111C7.92897 12.6946 8.65572 12.8353 9.3124 13.1218C9.78984 13.3388 10.295 13.4497 10.8164 13.4564C11.1162 13.4448 11.4258 13.405 11.7273 13.3388C12.7359 13.1566 14.2514 12.8817 14.8624 14.3009C14.9765 14.5526 15.0319 14.8259 15.0254 15.1008C16.0128 14.6768 16.9042 14.2993 17.3083 14.1635C18.0415 13.92 19.3891 13.4696 20.2413 14.4881C20.5656 14.8358 20.7171 15.3243 20.6454 15.798C20.5363 16.3842 20.0816 16.8909 19.2539 17.348C17.771 18.1661 14.0004 20.1616 12.4524 20.7594C11.9522 20.92 11.4421 20.9995 10.9256 20.9995L10.9272 21.0012ZM4.87696 19.7575C5.31692 19.7575 5.89864 19.8585 6.61724 20.0622C7.97134 20.4282 9.36943 20.6319 10.7708 20.6667C11.3069 20.6865 11.8365 20.6104 12.3465 20.4481C13.8701 19.8585 17.6228 17.873 19.0991 17.0582C19.8356 16.6508 20.2364 16.2202 20.3244 15.7433C20.3798 15.374 20.2593 14.9882 20.0034 14.7149L19.9969 14.7066C19.2881 13.8538 18.1181 14.243 17.4191 14.4765C16.9856 14.6222 15.9362 15.0693 14.8999 15.5164L14.6196 15.6373L14.6767 15.3343C14.7337 15.0296 14.6946 14.7199 14.5675 14.44C14.0575 13.256 12.8011 13.4828 11.7925 13.6667C11.478 13.7362 11.1505 13.7776 10.8229 13.7909C10.2494 13.7842 9.70022 13.6617 9.18367 13.4282C8.57099 13.1599 7.8915 13.0274 7.22341 13.044C5.9019 13.0688 4.62276 13.3603 3.41857 13.9084L3.19533 14.0028C1.38335 14.7365 0.597938 14.9087 0.565349 14.9153C0.477357 14.9335 0.407289 14.9998 0.386106 15.0875C0.37307 15.1405 0.081393 16.4273 0.925464 18.2456C1.65547 19.7989 2.48814 20.3736 3.05683 20.5839C3.13178 20.6104 3.21326 20.5971 3.27518 20.5474C3.29473 20.5309 3.77869 20.1401 4.16161 19.9132C4.32782 19.8105 4.56898 19.7592 4.88021 19.7592L4.87696 19.7575ZM10.7643 20.2046C9.46069 20.2046 7.79373 19.9148 6.73945 19.625C6.13003 19.4313 5.50594 19.3203 4.8737 19.2922C4.53639 19.2756 4.20235 19.3534 3.90741 19.519C3.71676 19.6366 3.47397 19.8072 3.17089 20.0357L3.09104 20.097L3.00142 20.0523C2.37733 19.7343 1.8005 19.0405 1.33283 18.0419C0.935241 17.2453 0.747851 16.3478 0.793476 15.4519L0.799994 15.3343L0.910799 15.3012C1.73858 15.0561 2.56309 14.7596 3.35828 14.4235L3.58478 14.3291C4.73356 13.8008 5.96219 13.5209 7.22993 13.5011C7.84587 13.4845 8.47159 13.612 9.03702 13.867C9.59593 14.1154 10.1891 14.2446 10.8001 14.2512C11.1521 14.2396 11.5122 14.1966 11.8642 14.1221C12.9869 13.9151 13.8033 13.8306 14.1438 14.6156C14.2595 14.859 14.2725 15.1488 14.1764 15.4071C14.046 15.7317 13.7381 16.0066 13.2574 16.2269C13.0961 16.2964 12.9543 16.3577 12.8337 16.409C12.6512 16.4869 12.5143 16.5465 12.4361 16.5779C11.5643 16.9241 10.8278 16.8065 10.1157 16.6906L9.73607 16.6309C9.61386 16.616 9.4949 16.7055 9.47861 16.833C9.47046 16.8959 9.48676 16.9572 9.52424 17.0069C9.56171 17.0565 9.61712 17.0897 9.67741 17.0979C9.79799 17.1145 9.9202 17.1344 10.044 17.1542C10.7806 17.2718 11.6149 17.406 12.604 17.0135C12.7294 16.9638 12.9804 16.8562 13.2737 16.727C13.334 16.7022 13.3877 16.679 13.4399 16.6558L13.9858 16.419C15.2502 15.8659 16.9824 15.1091 17.5576 14.917C18.501 14.6007 19.218 14.4947 19.6466 15.0031C19.8421 15.2366 19.9171 15.4502 19.8747 15.6589C19.7997 16.0662 19.293 16.4239 18.8807 16.6525C17.6961 17.3116 13.7446 19.4213 12.1787 20.0192C11.83 20.1516 11.333 20.2063 10.7675 20.2063L10.7643 20.2046ZM4.7857 18.9593C4.81992 18.9593 4.85414 18.9593 4.88999 18.9626C5.5483 18.9908 6.20172 19.1067 6.83233 19.3087C8.3559 19.7294 11.0266 20.1036 12.063 19.7095C13.611 19.1183 17.5429 17.0201 18.7227 16.3627C19.2034 16.0961 19.5146 15.8096 19.5537 15.5992V15.5959C19.5749 15.4949 19.5227 15.3691 19.3973 15.2217C19.1284 14.9037 18.6412 14.907 17.657 15.2349C17.0948 15.422 15.3708 16.1755 14.1129 16.7253L13.5719 16.9605C13.5197 16.9853 13.4594 17.0102 13.3975 17.035C13.0993 17.1658 12.8516 17.2718 12.7213 17.3232C11.6507 17.7471 10.7692 17.6063 9.9919 17.4821C9.87132 17.4623 9.75236 17.4424 9.63341 17.4275C9.48513 17.4076 9.35477 17.3298 9.26352 17.2089C9.1739 17.088 9.13479 16.939 9.15434 16.7899C9.19508 16.4802 9.47698 16.2617 9.78169 16.3031L10.1646 16.3627C10.836 16.4703 11.5269 16.5829 12.3155 16.2683C12.3921 16.2385 12.5257 16.1805 12.705 16.1027C12.8272 16.0497 12.969 15.9884 13.127 15.9222C13.5197 15.7417 13.7788 15.5214 13.8733 15.2846C13.9369 15.114 13.9287 14.9203 13.8489 14.753C13.6224 14.2281 13.0732 14.2347 11.9277 14.445C11.5611 14.5228 11.183 14.5692 10.805 14.5808C10.1434 14.5758 9.50631 14.4367 8.90666 14.1684C8.38523 13.9316 7.80676 13.8124 7.23807 13.8306C6.01433 13.8505 4.82807 14.1204 3.71514 14.6321L3.48538 14.7282C2.71463 15.0528 1.91945 15.3409 1.11774 15.5827C1.09656 16.3825 1.27254 17.1791 1.6294 17.8928C2.03677 18.7656 2.54354 19.4031 3.06334 19.7062C3.3371 19.5025 3.56196 19.3452 3.74773 19.2309C4.07036 19.0504 4.42722 18.9577 4.78733 18.9577L4.7857 18.9593Z" fill="#603C59"/>
<path d="M13.0309 8.28791C13.0309 10.9243 15.1345 13.0622 17.7287 13.0622C20.3228 13.0622 22.4265 10.9243 22.4265 8.28791C22.4265 5.65152 20.3228 3.5136 17.7287 3.5136C15.1345 3.5136 13.0309 5.65152 13.0309 8.28791ZM21.6443 8.28791C21.6443 10.4854 19.891 12.2673 17.7287 12.2673C15.5664 12.2673 13.813 10.4854 13.813 8.28791C13.813 6.09037 15.5664 4.30849 17.7287 4.30849C19.891 4.30849 21.6443 6.09037 21.6443 8.28791Z" fill="#603C59"/>
<path d="M17.7303 13.0837C15.128 13.0837 13.0113 10.9326 13.0113 8.28791C13.0113 5.64324 15.128 3.49207 17.7303 3.49207C20.3326 3.49207 22.4493 5.64324 22.4493 8.28791C22.4493 10.9326 20.3326 13.0837 17.7303 13.0837ZM17.7303 3.53347C15.1508 3.53347 13.0521 5.66643 13.0521 8.28791C13.0521 10.9094 15.1508 13.0423 17.7303 13.0423C20.3098 13.0423 22.4085 10.9094 22.4085 8.28791C22.4085 5.66643 20.3098 3.53347 17.7303 3.53347ZM17.7303 12.2872C15.5598 12.2872 13.7951 10.4937 13.7951 8.28791C13.7951 6.08209 15.5598 4.28862 17.7303 4.28862C19.9008 4.28862 21.6655 6.08209 21.6655 8.28791C21.6655 10.4937 19.9008 12.2872 17.7303 12.2872ZM17.7303 4.33002C15.5826 4.33002 13.8358 6.10527 13.8358 8.28791C13.8358 10.4705 15.5826 12.2458 17.7303 12.2458C19.878 12.2458 21.6248 10.4705 21.6248 8.28791C21.6248 6.10527 19.878 4.33002 17.7303 4.33002Z" fill="#603C59"/>
<path d="M17.4761 7.7911L18.0008 8.33759L18.0089 8.35581H17.1469V9.97871C17.1469 10.0615 17.2024 10.1791 17.2512 10.2453C17.4256 10.4805 17.7987 10.4739 18.0464 10.3762C18.4668 10.2089 18.9589 9.65578 19.0518 9.20369C19.0648 9.14407 19.0681 9.0828 19.0779 9.02318C18.7813 9.06293 18.4522 9.00331 18.2974 8.71516C18.092 8.33097 18.1866 7.71824 18.6444 7.58576C19.4804 7.34232 19.9953 8.16205 19.9611 8.91885C19.922 9.82635 19.1105 10.7968 18.2517 11.0203C17.6798 11.1694 17.2529 11.0667 16.839 10.6395C16.7673 10.5666 16.5734 10.3182 16.5734 10.2188V8.35746H16.021L15.5077 7.8176L15.493 7.79276H16.5734V6.67991C16.5652 6.53253 16.5212 6.42323 16.3909 6.35037C16.2507 6.27253 16.0682 6.25266 15.9248 6.33215C15.9118 6.32552 15.8206 6.13674 15.8075 6.10859C15.7603 6.00426 15.6951 5.88337 15.7505 5.77076C15.8254 5.61509 16.1741 5.50414 16.3338 5.4942C16.8862 5.46439 17.1144 6.03075 17.1453 6.50437V7.7911H17.4761Z" fill="#603C59"/>
<path d="M17.7971 11.1031C17.4288 11.1031 17.1241 10.9574 16.8259 10.6527C16.7705 10.5964 16.5554 10.3331 16.5554 10.2188V8.37734H16.0161L15.4963 7.83085L15.4604 7.77123H16.5554V6.67991C16.5473 6.52425 16.4952 6.43151 16.3827 6.36858C16.2377 6.28744 16.0633 6.28081 15.9362 6.35037L15.9265 6.35533L15.9167 6.35037C15.8922 6.33877 15.7912 6.12018 15.7896 6.11687L15.7766 6.09037C15.7309 5.98935 15.6772 5.87509 15.7326 5.76082C15.814 5.59191 16.1725 5.48261 16.3338 5.47267C16.3485 5.47267 16.3632 5.47267 16.3778 5.47267C16.9107 5.47267 17.1355 6.02247 17.1681 6.50438V7.77123H17.4842L18.0187 8.32765L18.0415 8.37568H17.1681V9.97705C17.1681 10.0516 17.2186 10.1642 17.2675 10.2304C17.4272 10.4457 17.7841 10.4556 18.0383 10.3546C18.4685 10.1841 18.9426 9.6326 19.0306 9.19707C19.0371 9.16229 19.042 9.1242 19.0469 9.08942C19.0485 9.07452 19.0502 9.05962 19.0518 9.04305C18.6901 9.08446 18.4098 8.96688 18.2778 8.72179C18.1523 8.48829 18.1377 8.17861 18.2371 7.93518C18.3153 7.74473 18.4538 7.61557 18.6379 7.56257C18.9573 7.46984 19.2555 7.52448 19.4983 7.71824C19.8128 7.96995 20.0018 8.44026 19.9822 8.91554C19.9431 9.81642 19.1365 10.8067 18.2583 11.0369C18.092 11.08 17.9389 11.1015 17.7971 11.1015V11.1031ZM16.0324 8.33428H16.5962V10.2172C16.5962 10.3033 16.7771 10.5418 16.8553 10.6229C17.2561 11.0352 17.6733 11.1479 18.2485 10.9972C19.1121 10.7719 19.9024 9.79986 19.9415 8.91554C19.9611 8.45351 19.7786 7.99645 19.4738 7.75136C19.2425 7.56588 18.9573 7.51289 18.651 7.60232C18.4359 7.66525 18.3283 7.82588 18.2778 7.95174C18.1817 8.18524 18.1963 8.48001 18.3153 8.70357C18.4945 9.03974 18.9068 9.02318 19.0746 9L19.1023 8.99669L19.0974 9.02484C19.0942 9.04802 19.0909 9.07286 19.0877 9.09605C19.0828 9.13248 19.0795 9.17057 19.0714 9.207C18.9801 9.65413 18.4945 10.2205 18.0529 10.3944C17.7776 10.5037 17.4093 10.4921 17.2349 10.2569C17.1828 10.1857 17.1274 10.0648 17.1274 9.97871V8.33593H17.9698L17.468 7.81429H17.129V6.50603C17.0997 6.044 16.8846 5.51573 16.3795 5.51573C16.3664 5.51573 16.3534 5.51573 16.3387 5.51573C16.1839 5.52401 15.8434 5.63331 15.7717 5.78069C15.726 5.87509 15.7717 5.9761 15.8157 6.07381L15.8287 6.10196C15.845 6.13674 15.9085 6.26756 15.933 6.30731C16.0699 6.23941 16.2524 6.24769 16.4039 6.33381C16.5294 6.40501 16.588 6.50769 16.5978 6.67991V7.81429H15.537L16.034 8.33593L16.0324 8.33428Z" fill="#603C59"/>
</svg>
