<svg width="12" height="12" viewBox="0 0 12 12" fill="none" xmlns="http://www.w3.org/2000/svg">
<path d="M11.5126 9.60572L9.49855 7.92686C9.41016 7.85331 9.29747 7.81546 9.18261 7.82075C9.06775 7.82604 8.95902 7.87408 8.87776 7.95544L8.74272 8.0905L8.18968 7.53964C8.93934 6.62259 9.30792 5.45241 9.21919 4.27116C9.13046 3.08991 8.59119 1.98796 7.71295 1.19324C6.8347 0.398518 5.68466 -0.028165 4.5007 0.00144403C3.31675 0.031053 2.18946 0.514689 1.35202 1.35231C0.514577 2.18994 0.0310463 3.31747 0.00144372 4.50168C-0.0281588 5.68589 0.398432 6.83618 1.19298 7.71462C1.98752 8.59306 3.08923 9.13244 4.27023 9.2212C5.45123 9.30995 6.62115 8.94128 7.53801 8.19146L8.08875 8.74462L7.95371 8.87969C7.87243 8.96103 7.82449 9.06982 7.81929 9.1847C7.81409 9.29958 7.852 9.41226 7.9256 9.50062L9.60409 11.5146C9.7248 11.6593 9.87437 11.7772 10.0432 11.8608C10.2121 11.9444 10.3966 11.9918 10.5848 12C10.6051 12 10.6254 12 10.6457 12C10.9239 12.0002 11.1955 11.9145 11.4234 11.7547C11.6513 11.595 11.8244 11.3688 11.9191 11.1071C12.0139 10.8454 12.0257 10.5609 11.9529 10.2922C11.8802 10.0235 11.7264 9.78382 11.5126 9.60572ZM0.938798 4.62446C0.938798 3.89509 1.15503 3.1821 1.56016 2.57565C1.96529 1.9692 2.54112 1.49653 3.21482 1.21741C3.88853 0.938293 4.62985 0.865263 5.34505 1.00756C6.06026 1.14985 6.71721 1.50108 7.23284 2.01682C7.74847 2.53256 8.09962 3.18966 8.24189 3.90502C8.38415 4.62037 8.31113 5.36186 8.03208 6.03571C7.75302 6.70956 7.28045 7.28551 6.67413 7.69073C6.06781 8.09595 5.35498 8.31223 4.62576 8.31223C3.64826 8.31113 2.7111 7.92225 2.0199 7.2309C1.32869 6.53954 0.939895 5.60218 0.938798 4.62446ZM10.9517 10.9518C10.9101 10.9947 10.8598 11.0282 10.8041 11.05C10.7484 11.0717 10.6887 11.0811 10.6291 11.0776C10.569 11.0752 10.5101 11.0601 10.4563 11.0333C10.4024 11.0065 10.3548 10.9687 10.3166 10.9222L8.90771 9.23141L9.23401 8.90458L10.9249 10.3142C10.971 10.3527 11.0086 10.4003 11.0353 10.4541C11.062 10.5079 11.0772 10.5666 11.0799 10.6266C11.0826 10.6866 11.0728 10.7464 11.0512 10.8024C11.0295 10.8584 10.9964 10.9093 10.954 10.9518H10.9517Z" fill="#603C59"/>
</svg>
