<svg width="20" height="20" viewBox="0 0 20 20" fill="none" xmlns="http://www.w3.org/2000/svg">
<path d="M15.228 7.78616H10.3443C9.96288 7.78616 9.6466 7.46988 9.6466 7.08848C9.6466 6.70709 9.96288 6.39081 10.3443 6.39081H15.228C15.6094 6.39081 15.9257 6.70709 15.9257 7.08848C15.9257 7.46988 15.6187 7.78616 15.228 7.78616Z" fill="#603C59"/>
<path d="M5.46006 8.49312C5.28332 8.49312 5.10658 8.428 4.96704 8.28846L4.26937 7.59076C3.9996 7.321 3.9996 6.87448 4.26937 6.60472C4.53913 6.33495 4.98565 6.33495 5.25541 6.60472L5.46006 6.80937L7.06006 5.20937C7.32983 4.9396 7.77634 4.9396 8.04611 5.20937C8.31591 5.47913 8.31591 5.92565 8.04611 6.19541L5.95309 8.28846C5.82286 8.4187 5.64611 8.49312 5.46006 8.49312Z" fill="#603C59"/>
<path d="M15.228 14.2978H10.3443C9.96288 14.2978 9.6466 13.9815 9.6466 13.6001C9.6466 13.2187 9.96288 12.9024 10.3443 12.9024H15.228C15.6094 12.9024 15.9257 13.2187 15.9257 13.6001C15.9257 13.9815 15.6187 14.2978 15.228 14.2978Z" fill="#603C59"/>
<path d="M5.46006 15.0047C5.28332 15.0047 5.10658 14.9396 4.96704 14.8001L4.26937 14.1024C3.9996 13.8327 3.9996 13.3861 4.26937 13.1164C4.53913 12.8466 4.98565 12.8466 5.25541 13.1164L5.46006 13.321L7.06006 11.721C7.32983 11.4513 7.77634 11.4513 8.04611 11.721C8.31591 11.9908 8.31591 12.4373 8.04611 12.7071L5.95309 14.8001C5.82286 14.9303 5.64611 15.0047 5.46006 15.0047Z" fill="#603C59"/>
<path d="M12.7907 20H7.2093C2.15814 20 0 17.8419 0 12.7907V7.2093C0 2.15814 2.15814 0 7.2093 0H12.7907C17.8419 0 20 2.15814 20 7.2093V12.7907C20 17.8419 17.8419 20 12.7907 20ZM7.2093 1.39535C2.92093 1.39535 1.39535 2.92093 1.39535 7.2093V12.7907C1.39535 17.0791 2.92093 18.6047 7.2093 18.6047H12.7907C17.0791 18.6047 18.6047 17.0791 18.6047 12.7907V7.2093C18.6047 2.92093 17.0791 1.39535 12.7907 1.39535H7.2093Z" fill="#603C59"/>
</svg>
