<svg width="10" height="13" viewBox="0 0 10 13" fill="none" xmlns="http://www.w3.org/2000/svg">
<path d="M5 5.86425C5.59334 5.86425 6.17336 5.69229 6.66671 5.3701C7.16006 5.04792 7.54458 4.58998 7.77164 4.0542C7.9987 3.51843 8.05811 2.92888 7.94236 2.3601C7.8266 1.79132 7.54088 1.26887 7.12132 0.858801C6.70176 0.448736 6.16721 0.169478 5.58527 0.0563413C5.00333 -0.0567954 4.40013 0.00127044 3.85195 0.223196C3.30377 0.445122 2.83524 0.82094 2.50559 1.30313C2.17595 1.78531 2 2.35221 2 2.93213C2.00079 3.70954 2.31712 4.45489 2.87956 5.0046C3.44199 5.55431 4.20459 5.86348 5 5.86425ZM5 0.977377C5.39556 0.977377 5.78224 1.09202 6.11114 1.30681C6.44004 1.5216 6.69638 1.82689 6.84776 2.18408C6.99913 2.54126 7.03874 2.9343 6.96157 3.31348C6.8844 3.69267 6.69392 4.04097 6.41421 4.31435C6.13451 4.58772 5.77814 4.77389 5.39018 4.84932C5.00222 4.92474 4.60009 4.88603 4.23463 4.73808C3.86918 4.59013 3.55682 4.33959 3.33706 4.01813C3.1173 3.69667 3 3.31874 3 2.93213C3 2.4137 3.21071 1.9165 3.58579 1.54991C3.96086 1.18332 4.46957 0.977377 5 0.977377Z" fill="#603C59"/>
<path d="M6.4415 6.84163H3.5585C2.61501 6.84279 1.7105 7.20967 1.0434 7.86177C0.376295 8.51387 0.00105846 9.39796 0 10.3201C0.000661817 10.9527 0.25805 11.5591 0.715683 12.0064C1.17332 12.4537 1.79381 12.7052 2.441 12.7059H7.559C8.20624 12.7051 8.82673 12.4534 9.28435 12.0061C9.74197 11.5587 9.99934 10.9522 10 10.3196C9.99894 9.39752 9.62369 8.51348 8.95657 7.86145C8.28945 7.20943 7.38495 6.84266 6.4415 6.84163ZM7.559 11.7285H2.441C2.0589 11.728 1.69261 11.5794 1.42247 11.3153C1.15233 11.0511 1.0004 10.6931 1 10.3196C1.00066 9.65661 1.27043 9.02095 1.7501 8.55213C2.22977 8.08332 2.88015 7.81965 3.5585 7.81901H6.4415C7.1199 7.81978 7.77028 8.08356 8.24993 8.55245C8.72959 9.02134 8.99934 9.65706 9 10.3201C8.9996 10.6935 8.84766 11.0515 8.5775 11.3156C8.30735 11.5796 7.94106 11.7281 7.559 11.7285Z" fill="#603C59"/>
</svg>
