<svg width="12" height="12" viewBox="0 0 12 12" fill="none" xmlns="http://www.w3.org/2000/svg">
<path d="M8.81412 12C8.57959 11.9997 8.34864 11.9402 8.14123 11.8265L5.99888 10.6577L3.8556 11.8255C3.61707 11.9559 3.34817 12.0143 3.07934 11.9941C2.8105 11.9739 2.55248 11.876 2.33447 11.7113C2.11647 11.5467 1.94719 11.322 1.8458 11.0626C1.74441 10.8032 1.71496 10.5194 1.76078 10.2436L2.1683 7.76565L0.436235 6.01017C0.243267 5.81489 0.106755 5.56743 0.0421389 5.29577C-0.0224773 5.02411 -0.0126195 4.73908 0.0705975 4.47293C0.153814 4.20679 0.30707 3.97014 0.51303 3.78975C0.71899 3.60936 0.969436 3.49244 1.23604 3.4522L3.63269 3.09075L4.70663 0.835276C4.82597 0.584518 5.01044 0.373417 5.23919 0.225817C5.46795 0.0782174 5.73188 0 6.00118 0C6.27048 0 6.53442 0.0782174 6.76317 0.225817C6.99193 0.373417 7.1764 0.584518 7.29573 0.835276L8.36737 3.09075L10.7636 3.4522C11.0302 3.49237 11.2807 3.60924 11.4867 3.78959C11.6927 3.96995 11.8461 4.20659 11.9293 4.47275C12.0126 4.73891 12.0225 5.02396 11.9579 5.29566C11.8933 5.56736 11.7568 5.81486 11.5638 6.01017L9.82945 7.76565L10.2388 10.245C10.2741 10.4605 10.2638 10.6813 10.2084 10.8922C10.1531 11.103 10.0542 11.2989 9.91858 11.4659C9.78295 11.633 9.61386 11.7674 9.42311 11.8596C9.23235 11.9518 9.02453 11.9998 8.81412 12ZM5.99888 9.63427C6.07367 9.63414 6.14736 9.65307 6.21348 9.6894L8.57182 10.9775C8.65783 11.0244 8.75475 11.0454 8.85163 11.038C8.94851 11.0307 9.04148 10.9954 9.12004 10.936C9.19859 10.8767 9.25959 10.7957 9.29614 10.7022C9.33269 10.6087 9.34333 10.5065 9.32686 10.407L8.87642 7.67984C8.86357 7.60301 8.86896 7.52408 8.89212 7.4499C8.91529 7.37572 8.95552 7.30853 9.00934 7.25415L10.9172 5.32226C10.9868 5.25183 11.036 5.1626 11.0593 5.06465C11.0826 4.9667 11.079 4.86394 11.049 4.76798C11.019 4.67202 10.9637 4.5867 10.8895 4.52166C10.8152 4.45662 10.7249 4.41446 10.6288 4.39993L7.99216 4.00205C7.91806 3.99083 7.84771 3.96105 7.78716 3.91529C7.72662 3.86952 7.6777 3.80914 7.64464 3.73935L6.46547 1.26192C6.4188 1.17606 6.351 1.10461 6.26902 1.0549C6.18703 1.00519 6.09381 0.978989 5.99888 0.978989C5.90394 0.978989 5.81072 1.00519 5.72873 1.0549C5.64675 1.10461 5.57896 1.17606 5.53228 1.26192L4.35311 3.74079C4.32005 3.81058 4.27114 3.87096 4.21059 3.91672C4.15005 3.96249 4.07969 3.99227 4.00559 4.00349L1.36896 4.40137C1.27284 4.41589 1.18254 4.45806 1.10829 4.5231C1.03403 4.58814 0.978776 4.67346 0.948766 4.76942C0.918757 4.86538 0.915191 4.96814 0.938473 5.06609C0.961754 5.16404 1.01095 5.25327 1.08051 5.3237L2.98841 7.25415C3.04202 7.30838 3.08213 7.37533 3.10528 7.44924C3.12844 7.52315 3.13394 7.60179 3.12133 7.6784L2.67089 10.4056C2.65446 10.5051 2.66516 10.6073 2.70177 10.7008C2.73837 10.7943 2.79944 10.8752 2.87805 10.9345C2.95666 10.9938 3.04967 11.0291 3.14658 11.0364C3.24348 11.0436 3.34041 11.0226 3.42639 10.9756L5.78427 9.68796C5.85051 9.65213 5.92419 9.6337 5.99888 9.63427Z" fill="#603C59"/>
</svg>
