<svg width="20" height="20" viewBox="0 0 20 20" fill="none" xmlns="http://www.w3.org/2000/svg">
<path d="M6.40777 8.88273H7.93343C8.3297 8.88273 8.65465 8.55785 8.65465 8.16165V7.63074C8.65465 7.23455 8.3297 6.90967 7.93343 6.90967H6.40777C6.01149 6.90967 5.68655 7.23455 5.68655 7.63074V8.16165C5.68655 8.55785 6.01149 8.88273 6.40777 8.88273ZM6.31266 7.63471C6.31266 7.5832 6.35625 7.53962 6.40777 7.53962H7.93343C7.98494 7.53962 8.02853 7.5832 8.02853 7.63471V8.16561C8.02853 8.21712 7.98494 8.2607 7.93343 8.2607H6.40777C6.35625 8.2607 6.31266 8.21712 6.31266 8.16561V7.63471ZM4.58094 12.6387H3.05528C2.65901 12.6387 2.33406 12.9636 2.33406 13.3597V13.8907C2.33406 14.2868 2.65901 14.6117 3.05528 14.6117H4.58094C4.97721 14.6117 5.30216 14.2868 5.30216 13.8907V13.3597C5.30216 12.9636 4.97721 12.6387 4.58094 12.6387ZM4.67605 13.8907C4.67605 13.9422 4.63246 13.9857 4.58094 13.9857H3.05528C3.00376 13.9857 2.96017 13.9422 2.96017 13.8907V13.3597C2.96017 13.3082 3.00376 13.2647 3.05528 13.2647H4.58094C4.63246 13.2647 4.67605 13.3082 4.67605 13.3597V13.8907ZM4.58094 9.77417H3.05528C2.65901 9.77417 2.33406 10.099 2.33406 10.4952V11.0261C2.33406 11.4223 2.65901 11.7472 3.05528 11.7472H4.58094C4.97721 11.7472 5.30216 11.4223 5.30216 11.0261V10.4952C5.30216 10.099 4.97721 9.77417 4.58094 9.77417ZM4.67605 11.0261C4.67605 11.0777 4.63246 11.1212 4.58094 11.1212H3.05528C3.00376 11.1212 2.96017 11.0777 2.96017 11.0261V10.4952C2.96017 10.4437 3.00376 10.4002 3.05528 10.4002H4.58094C4.63246 10.4002 4.67605 10.4437 4.67605 10.4952V11.0261ZM8.65465 13.3597C8.65465 12.9636 8.3297 12.6387 7.93343 12.6387H6.40777C6.01149 12.6387 5.68655 12.9636 5.68655 13.3597V13.8907C5.68655 14.2868 6.01149 14.6117 6.40777 14.6117H7.93343C8.3297 14.6117 8.65465 14.2868 8.65465 13.8907V13.3597ZM8.0325 13.8907C8.0325 13.9422 7.9889 13.9857 7.93739 13.9857H6.41173C6.36021 13.9857 6.31662 13.9422 6.31662 13.8907V13.3597C6.31662 13.3082 6.36021 13.2647 6.41173 13.2647H7.93739C7.9889 13.2647 8.0325 13.3082 8.0325 13.3597V13.8907ZM4.58094 6.91363H3.05528C2.65901 6.91363 2.33406 7.23851 2.33406 7.63471V8.16561C2.33406 8.56181 2.65901 8.88669 3.05528 8.88669H4.58094C4.97721 8.88669 5.30216 8.56181 5.30216 8.16561V7.63471C5.30216 7.23851 4.97721 6.91363 4.58094 6.91363ZM4.67605 8.16561C4.67605 8.21712 4.63246 8.2607 4.58094 8.2607H3.05528C3.00376 8.2607 2.96017 8.21712 2.96017 8.16561V7.63471C2.96017 7.5832 3.00376 7.53962 3.05528 7.53962H4.58094C4.63246 7.53962 4.67605 7.5832 4.67605 7.63471V8.16561ZM6.40777 11.7472H7.93343C8.3297 11.7472 8.65465 11.4223 8.65465 11.0261V10.4952C8.65465 10.099 8.3297 9.77417 7.93343 9.77417H6.40777C6.01149 9.77417 5.68655 10.099 5.68655 10.4952V11.0261C5.68655 11.4223 6.01149 11.7472 6.40777 11.7472ZM6.31266 10.4952C6.31266 10.4437 6.35625 10.4002 6.40777 10.4002H7.93343C7.98494 10.4002 8.02853 10.4437 8.02853 10.4952V11.0261C8.02853 11.0777 7.98494 11.1212 7.93343 11.1212H6.40777C6.35625 11.1212 6.31266 11.0777 6.31266 11.0261V10.4952ZM19.2907 12.393C18.72 11.3906 17.8482 10.2575 16.5722 8.85499C16.9289 8.66878 17.1706 8.29636 17.1706 7.87243C17.1706 7.3019 16.7387 6.83439 16.1878 6.771L16.9685 5.99049C17.4084 5.55071 17.4084 4.82964 16.9685 4.38986C16.596 4.01743 16.0016 3.95404 15.5578 4.2393C15.5261 4.25911 15.4944 4.26307 15.4587 4.24723C15.423 4.23138 15.4032 4.20761 15.3953 4.16799C15.2883 3.67274 14.8564 3.30824 14.3531 3.28051V2.08796C14.3531 0.935024 13.4179 0 12.2647 0H2.08837C0.935209 0 0 0.935024 0 2.08796V15.0713C0 16.2242 0.935209 17.1593 2.08837 17.1593H9.12621C9.15395 17.2147 9.18566 17.2662 9.21736 17.3217C10.2001 18.9818 12.0943 20 14.1787 20H14.3848C16.4692 20 18.3634 18.9818 19.3461 17.3217C20.2378 15.8162 20.218 14.0174 19.2946 12.393H19.2907ZM16.5445 7.87243C16.5445 8.13788 16.3265 8.35578 16.061 8.35578H12.5025C12.237 8.35578 12.019 8.13788 12.019 7.87243C12.019 7.60697 12.237 7.38906 12.5025 7.38906H16.061C16.3265 7.38906 16.5445 7.60697 16.5445 7.87243ZM14.7771 4.30269C14.8286 4.54041 14.9871 4.73059 15.213 4.82567C15.4389 4.92076 15.6846 4.89699 15.8906 4.76624C16.0888 4.63946 16.3543 4.66719 16.5247 4.8336C16.6198 4.92868 16.6713 5.05547 16.6713 5.19017C16.6713 5.32488 16.6198 5.45166 16.5247 5.54675L15.3121 6.75911H13.2554L12.0428 5.54675C11.9477 5.45166 11.8962 5.32488 11.8962 5.19017C11.8962 5.05547 11.9477 4.92868 12.0428 4.8336C12.2092 4.66719 12.4747 4.63946 12.6768 4.76624C12.8829 4.89699 13.1286 4.92076 13.3545 4.82567C13.5803 4.73059 13.7389 4.54041 13.7904 4.30269C13.8419 4.0729 14.0479 3.90254 14.2857 3.90254C14.5235 3.90254 14.7295 4.06894 14.7811 4.30269H14.7771ZM11.2859 4.9683H2.68278C2.63127 4.9683 2.58768 4.92472 2.58768 4.87322V3.27258C2.58768 3.22108 2.63127 3.1775 2.68278 3.1775H11.6663C11.7179 3.1775 11.7614 3.22108 11.7614 3.27258V4.25911C11.702 4.29873 11.6505 4.34231 11.599 4.39382C11.4405 4.5523 11.3335 4.75436 11.2899 4.97227L11.2859 4.9683ZM2.08837 16.5333C1.27997 16.5333 0.626115 15.8756 0.626115 15.0713V2.08796C0.626115 1.27971 1.28393 0.625991 2.08837 0.625991H12.2568C13.0652 0.625991 13.719 1.28368 13.719 2.08796V3.4271C13.4496 3.58162 13.2435 3.84707 13.1722 4.16799C13.1643 4.20761 13.1444 4.23138 13.1088 4.24723C13.0731 4.26307 13.0414 4.25911 13.0097 4.2393C12.8195 4.11648 12.6015 4.06101 12.3836 4.06101V3.27258C12.3836 2.87639 12.0586 2.55151 11.6624 2.55151H2.68278C2.28651 2.55151 1.96156 2.87639 1.96156 3.27258V4.87322C1.96156 5.26941 2.28651 5.59429 2.68278 5.59429H11.3414C11.3969 5.74089 11.4841 5.87559 11.599 5.99049L12.3796 6.771C12.1339 6.79873 11.912 6.90967 11.7416 7.07211C11.6188 6.97306 11.4642 6.91363 11.2938 6.91363H9.76818C9.3719 6.91363 9.04696 7.23851 9.04696 7.63471V8.16561C9.04696 8.56181 9.3719 8.88669 9.76818 8.88669H11.2938C11.4761 8.88669 11.6426 8.81933 11.7733 8.70444C11.8407 8.76387 11.916 8.81537 11.9952 8.85895C11.702 9.17987 11.4325 9.48495 11.1829 9.77813H9.76818C9.3719 9.77813 9.04696 10.103 9.04696 10.4992V11.0301C9.04696 11.3946 9.32039 11.6997 9.67704 11.7433C9.53041 11.9651 9.39568 12.183 9.2768 12.393C8.50802 13.7441 8.36537 15.2139 8.84882 16.5372H2.08837V16.5333ZM11.385 7.63471V8.16561C11.385 8.21712 11.3414 8.2607 11.2899 8.2607H9.76422C9.7127 8.2607 9.66911 8.21712 9.66911 8.16561V7.63471C9.66911 7.5832 9.7127 7.53962 9.76422 7.53962H11.2899C11.3414 7.53962 11.385 7.5832 11.385 7.63471ZM10.1011 11.1212H9.76025C9.70874 11.1212 9.66515 11.0777 9.66515 11.0261V10.4952C9.66515 10.4437 9.70874 10.4002 9.76025 10.4002H10.6558C10.4537 10.6498 10.2714 10.8914 10.1011 11.1212ZM18.8072 17.0008C17.9354 18.4707 16.2473 19.37 14.3848 19.37H14.1787C12.3162 19.37 10.6281 18.4667 9.75629 17.0008C8.9677 15.6735 8.99148 14.1442 9.81573 12.6981C10.4022 11.668 11.3295 10.4834 12.7244 8.97781H15.8391C17.238 10.4834 18.1613 11.668 18.7478 12.6981C19.572 14.1442 19.5918 15.6735 18.8072 17.0008ZM16.6634 13.859C16.382 13.6371 16.0333 13.5737 15.6568 13.6807C15.3953 13.7559 15.2645 13.9501 15.2011 14.1006C15.0862 14.3819 15.102 14.7345 15.2487 15.004C15.4666 15.4041 15.9699 15.3843 16.1759 15.3605H16.2076L16.2037 15.3883C16.2037 15.416 16.1958 15.4437 16.1918 15.4715C16.1878 15.5151 16.1799 15.5626 16.172 15.6062C16.061 16.141 15.4666 16.8225 14.9277 17.0325C14.5948 17.1632 14.1431 17.1513 13.9291 16.8661C13.8657 16.7829 13.7983 16.6363 13.7983 16.5333V14.5602H14.8246L14.2144 13.9303H13.7983V12.3613C13.7626 11.8067 13.5011 11.1727 12.8829 11.1727H12.8353C12.6451 11.1807 12.229 11.3154 12.1419 11.4897C12.0864 11.6046 12.1419 11.7235 12.1973 11.8423L12.2132 11.874C12.229 11.9176 12.3083 12.0721 12.34 12.1197C12.5064 12.0404 12.7284 12.0523 12.9146 12.1513C13.0692 12.2385 13.1365 12.3613 13.1484 12.5674V13.9303H11.8526L12.4629 14.5602H13.1484V16.8225C13.1484 16.9255 13.3703 17.2108 13.4654 17.3098C13.9568 17.8051 14.464 17.9398 15.1654 17.7575C16.2235 17.4881 17.1865 16.3193 17.234 15.2575C17.2578 14.7029 17.0359 14.1521 16.6634 13.859Z" fill="#603C59"/>
</svg>
