<svg width="18" height="18" viewBox="0 0 18 18" fill="none" xmlns="http://www.w3.org/2000/svg">
<path fill-rule="evenodd" clip-rule="evenodd" d="M1.42762 8.80771C1.39703 8.83827 1.38462 8.8733 1.38462 8.90314V11.9477C1.38462 12.4789 1.82235 12.9165 2.35384 12.9165H3.55381C3.63301 12.9165 3.69233 12.8572 3.69233 12.7781V8.90314C3.69233 8.82825 3.62802 8.76475 3.55381 8.76475H1.5231C1.49324 8.76475 1.45819 8.77715 1.42762 8.80771ZM0 8.90314C0 8.06887 0.68847 7.38085 1.5231 7.38085H3.55381C4.40269 7.38085 5.07694 8.07385 5.07694 8.90314V12.7781C5.07694 13.6215 4.39771 14.3004 3.55381 14.3004H2.35384C1.05763 14.3004 0 13.2432 0 11.9477V8.90314Z" fill="#603C59"/>
<path fill-rule="evenodd" clip-rule="evenodd" d="M9 1.38391C5.81007 1.38391 3.23077 3.96188 3.23077 7.15018V8.08199C3.23077 8.46417 2.92081 8.77394 2.53846 8.77394C2.15611 8.77394 1.84615 8.46417 1.84615 8.08199V7.15018C1.84615 3.19755 5.04532 0 9 0C12.9547 0 16.1539 3.19755 16.1539 7.15018V8.0728C16.1539 8.45492 15.8439 8.76475 15.4616 8.76475C15.0792 8.76475 14.7692 8.45492 14.7692 8.0728V7.15018C14.7692 3.96188 12.1899 1.38391 9 1.38391Z" fill="#603C59"/>
<path fill-rule="evenodd" clip-rule="evenodd" d="M15.5056 12.93C15.8805 13.0053 16.1233 13.37 16.048 13.7447C15.5597 16.1744 13.4161 18 10.8461 18H9.9231C9.54072 18 9.23079 17.6902 9.23079 17.308C9.23079 16.9259 9.54072 16.6161 9.9231 16.6161H10.8461C12.7439 16.6161 14.3296 15.2679 14.6905 13.4721C14.7658 13.0975 15.1307 12.8547 15.5056 12.93Z" fill="#603C59"/>
<path fill-rule="evenodd" clip-rule="evenodd" d="M14.3507 8.80771C14.3201 8.83827 14.3077 8.8733 14.3077 8.90314V12.7781C14.3077 12.853 14.372 12.9165 14.4462 12.9165H15.6C16.1592 12.9165 16.6154 12.4605 16.6154 11.9016V8.90314C16.6154 8.82825 16.5511 8.76475 16.4769 8.76475H14.4462C14.4163 8.76475 14.3813 8.77715 14.3507 8.80771ZM12.9231 8.90314C12.9231 8.06887 13.6115 7.38085 14.4462 7.38085H16.4769C17.3257 7.38085 18 8.07385 18 8.90314V11.9016C18 13.2248 16.9239 14.3004 15.6 14.3004H14.4462C13.5973 14.3004 12.9231 13.6073 12.9231 12.7781V8.90314Z" fill="#603C59"/>
</svg>
