<svg width="21" height="22" viewBox="0 0 21 22" fill="none" xmlns="http://www.w3.org/2000/svg">
<path d="M8.42449 10.569H11.9176C12.6402 10.569 13.2281 9.9975 13.2281 9.29488C13.2281 8.59225 12.6401 8.02083 11.9176 8.02083H8.42449C7.70188 8.02083 7.11399 8.59225 7.11399 9.29488C7.11399 9.9975 7.70188 10.569 8.42449 10.569ZM8.42449 8.66382H11.9176C12.2755 8.66382 12.5666 8.947 12.5666 9.29488C12.5666 9.64295 12.2755 9.92598 11.9176 9.92598H8.42449C8.0666 9.92598 7.77549 9.64291 7.77549 9.29488C7.77545 8.947 8.0666 8.66382 8.42449 8.66382ZM19.7168 11.6503C19.5342 11.6503 19.3862 11.7942 19.3862 11.9717C19.3862 12.1279 19.3694 12.2804 19.3413 12.4287L19.3372 4.48401C19.3372 4.42029 19.3177 4.35832 19.2813 4.30548L17.1061 1.14277C17.0448 1.05349 16.9417 1 16.8313 1H3.50578C3.39547 1 3.29232 1.05349 3.23097 1.14277L1.05588 4.30548C1.01938 4.35832 1 4.42061 1 4.48417V17.273C1 17.4505 1.14813 17.5945 1.33077 17.5945H6.5974L10.3528 20.9165C10.4149 20.9714 10.4945 21 10.5753 21C10.6206 21 10.666 20.991 10.709 20.9726C10.8287 20.9212 10.906 20.8058 10.906 20.6785V18.8757H16.7882C18.5799 18.8705 20.0421 17.4489 20.0476 15.7059V11.9717C20.0476 11.7942 19.8995 11.6503 19.7168 11.6503ZM18.3876 4.16274H11.7713L11.5145 1.6431H16.6546L18.3876 4.16274ZM11.1446 6.2165L11.0311 6.12853C10.9109 6.03528 10.7403 6.035 10.6199 6.12789L10.1693 6.47429L9.72305 6.12853C9.60253 6.035 9.43141 6.035 9.31089 6.12853L9.19609 6.2175V4.80564H11.1417L11.1446 6.2165ZM9.23049 4.16274L9.48675 1.6431H10.8499L11.1067 4.16274H9.23049ZM3.68251 1.6431H8.822L8.56574 4.16274H1.94969L3.68251 1.6431ZM1.66142 16.9516V4.80564H8.53467V6.88468C8.53467 7.00818 8.60742 7.12079 8.72185 7.17447C8.76752 7.19579 8.81657 7.20628 8.86532 7.20628C8.93893 7.20628 9.0118 7.18235 9.0715 7.13627L9.51695 6.79116L9.96248 7.13627C10.0825 7.22928 10.2531 7.2296 10.3737 7.13687L10.8243 6.79048L11.2706 7.13627C11.37 7.21304 11.5059 7.22792 11.6205 7.17431C11.735 7.12051 11.8076 7.00774 11.8074 6.88408L11.8031 4.80569H18.6759L18.6805 13.6972C18.2061 14.1891 17.5339 14.4986 16.7872 14.4986H10.9059V12.6958C10.9059 12.5684 10.8287 12.4532 10.7089 12.4017C10.5895 12.3505 10.4497 12.3725 10.3528 12.4578L5.84044 16.4495C5.77165 16.5105 5.73243 16.5968 5.73243 16.6872C5.73243 16.7776 5.77165 16.864 5.84044 16.925L5.87048 16.9516H1.66142ZM19.3862 15.7049C19.3819 17.0946 18.2155 18.2285 16.7873 18.2328H10.5752C10.3926 18.2328 10.2445 18.3767 10.2445 18.5542V19.9519L6.5542 16.6872L10.2445 13.4224V14.82C10.2445 14.9976 10.3926 15.1415 10.5752 15.1415H16.7873C17.847 15.1415 18.7903 14.6472 19.3862 13.8835V15.7049Z" fill="#603C59" stroke="#603C59" stroke-width="0.4"/>
</svg>
