<svg width="10" height="12" viewBox="0 0 10 12" fill="none" xmlns="http://www.w3.org/2000/svg">
<path d="M5 6.728C4.41711 6.72866 3.85201 6.5369 3.40091 6.18536C2.94982 5.83382 2.64062 5.34424 2.52599 4.8C2.51685 4.74267 2.52091 4.68414 2.53789 4.62845C2.55487 4.57276 2.58435 4.52126 2.62431 4.4775C2.66426 4.43375 2.71373 4.39879 2.76928 4.37504C2.82483 4.3513 2.88514 4.33934 2.94603 4.34C3.04609 4.33861 3.14339 4.3713 3.2204 4.43216C3.2974 4.49303 3.34906 4.57808 3.36606 4.672C3.44517 5.03157 3.6518 5.35426 3.95125 5.58587C4.2507 5.81748 4.62472 5.94391 5.0105 5.94391C5.39628 5.94391 5.7703 5.81748 6.06975 5.58587C6.3692 5.35426 6.57583 5.03157 6.65494 4.672C6.67194 4.57808 6.7236 4.49303 6.80061 4.43216C6.87761 4.3713 6.97491 4.33861 7.07498 4.34C7.13586 4.33934 7.19617 4.3513 7.25172 4.37504C7.30727 4.39879 7.35674 4.43375 7.39669 4.4775C7.43665 4.52126 7.46614 4.57276 7.48311 4.62845C7.50009 4.68414 7.50415 4.74267 7.49501 4.8C7.37969 5.34763 7.06741 5.83981 6.61198 6.19174C6.15655 6.54367 5.58648 6.73332 5 6.728Z" fill="#603C59"/>
<path d="M8.73832 12H1.26168C1.09077 12.0002 0.921591 11.9673 0.764451 11.9033C0.607311 11.8392 0.46549 11.7455 0.347616 11.6276C0.229742 11.5097 0.138278 11.3703 0.0787895 11.2177C0.0193008 11.0651 -0.00696978 10.9026 0.00157624 10.74L0.341805 3.844C0.355886 3.53484 0.494838 3.24281 0.729645 3.02889C0.964452 2.81497 1.27696 2.69571 1.60191 2.696H8.39809C8.72304 2.69571 9.03555 2.81497 9.27036 3.02889C9.50516 3.24281 9.64411 3.53484 9.6582 3.844L9.99842 10.74C10.007 10.9026 9.9807 11.0651 9.92121 11.2177C9.86172 11.3703 9.77026 11.5097 9.65238 11.6276C9.53451 11.7455 9.39269 11.8392 9.23555 11.9033C9.07841 11.9673 8.90924 12.0002 8.73832 12ZM1.60191 3.5C1.49051 3.5 1.38367 3.54214 1.3049 3.61716C1.22613 3.69217 1.18188 3.79391 1.18188 3.9L0.841648 10.78C0.838799 10.8342 0.847556 10.8884 0.867385 10.9392C0.887215 10.9901 0.917703 11.0366 0.956994 11.0759C0.996286 11.1151 1.04356 11.1464 1.09594 11.1678C1.14832 11.1891 1.20471 11.2001 1.26168 11.2H8.73832C8.79529 11.2001 8.85168 11.1891 8.90406 11.1678C8.95644 11.1464 9.00372 11.1151 9.04301 11.0759C9.0823 11.0366 9.11279 10.9901 9.13262 10.9392C9.15244 10.8884 9.1612 10.8342 9.15835 10.78L8.81812 3.884C8.81812 3.77791 8.77387 3.67617 8.6951 3.60116C8.61633 3.52614 8.50949 3.484 8.39809 3.484L1.60191 3.5Z" fill="#603C59"/>
<path d="M7.52021 3.1H6.68014V2.4C6.68014 1.97565 6.50313 1.56869 6.18804 1.26863C5.87295 0.968571 5.4456 0.8 5 0.8C4.5544 0.8 4.12705 0.968571 3.81196 1.26863C3.49687 1.56869 3.31986 1.97565 3.31986 2.4V3.1H2.47979V2.4C2.47979 1.76348 2.74531 1.15303 3.21794 0.702944C3.69057 0.252856 4.3316 0 5 0C5.6684 0 6.30943 0.252856 6.78206 0.702944C7.25469 1.15303 7.52021 1.76348 7.52021 2.4V3.1Z" fill="#603C59"/>
</svg>
