<svg width="24" height="24" viewBox="0 0 24 24" fill="none" xmlns="http://www.w3.org/2000/svg">
<path d="M8.65116 10.6047C6.95442 10.6047 5.5814 9.23163 5.5814 7.53488C5.5814 5.83814 6.95442 4.46512 8.65116 4.46512C10.3479 4.46512 11.7209 5.83814 11.7209 7.53488C11.7209 9.23163 10.3479 10.6047 8.65116 10.6047ZM8.65116 6.13953C7.88093 6.13953 7.25581 6.76465 7.25581 7.53488C7.25581 8.30512 7.88093 8.93023 8.65116 8.93023C9.4214 8.93023 10.0465 8.30512 10.0465 7.53488C10.0465 6.76465 9.4214 6.13953 8.65116 6.13953Z" fill="#B63D5E"/>
<path d="M15.3488 24H8.65116C2.58977 24 0 21.4102 0 15.3488V8.65116C0 2.58977 2.58977 0 8.65116 0H13.1163C13.574 0 13.9535 0.379535 13.9535 0.837209C13.9535 1.29488 13.574 1.67442 13.1163 1.67442H8.65116C3.50512 1.67442 1.67442 3.50512 1.67442 8.65116V15.3488C1.67442 20.4949 3.50512 22.3256 8.65116 22.3256H15.3488C20.4949 22.3256 22.3256 20.4949 22.3256 15.3488V9.76744C22.3256 9.30977 22.7051 8.93023 23.1628 8.93023C23.6205 8.93023 24 9.30977 24 9.76744V15.3488C24 21.4102 21.4102 24 15.3488 24Z" fill="#B63D5E"/>
<path d="M18.6977 8.37203C18.24 8.37203 17.8605 7.99249 17.8605 7.53482V0.837142C17.8605 0.502259 18.0614 0.1897 18.374 0.0669097C18.6865 -0.055881 19.0437 0.0110957 19.2893 0.245514L21.5219 2.47807C21.8456 2.80179 21.8456 3.33761 21.5219 3.66133C21.1981 3.98505 20.6623 3.98505 20.3386 3.66133L19.5349 2.85761V7.53482C19.5349 7.99249 19.1553 8.37203 18.6977 8.37203Z" fill="#B63D5E"/>
<path d="M16.465 3.90691C16.2529 3.90691 16.0408 3.82877 15.8734 3.66133C15.5497 3.33761 15.5497 2.80179 15.8734 2.47807L18.1059 0.245514C18.4297 -0.0782066 18.9655 -0.0782066 19.2892 0.245514C19.6129 0.569235 19.6129 1.10505 19.2892 1.42877L17.0566 3.66133C16.8892 3.82877 16.6771 3.90691 16.465 3.90691Z" fill="#B63D5E"/>
<path d="M1.58489 20.5955C1.31699 20.5955 1.04908 20.4615 0.8928 20.2271C0.636056 19.8476 0.736521 19.3229 1.11606 19.0662L6.61931 15.3713C7.82489 14.5676 9.48815 14.6569 10.5821 15.5834L10.9505 15.9071C11.5086 16.3871 12.4575 16.3871 13.0044 15.9071L17.6481 11.922C18.8314 10.9062 20.6956 10.9062 21.89 11.922L23.7095 13.4848C24.0556 13.7862 24.1002 14.3108 23.7988 14.668C23.4975 15.0141 22.9616 15.0587 22.6156 14.7573L20.7961 13.1945C20.2379 12.7145 19.3002 12.7145 18.7421 13.1945L14.0984 17.1796C12.9151 18.1955 11.0509 18.1955 9.85652 17.1796L9.48815 16.8559C8.97466 16.4206 8.1263 16.3759 7.557 16.7666L2.06489 20.4615C1.90861 20.5508 1.74117 20.5955 1.58489 20.5955Z" fill="#B63D5E"/>
</svg>
