<svg width="30" height="18" viewBox="0 0 30 18" fill="none" xmlns="http://www.w3.org/2000/svg">
<path d="M8.125 15.4286H5.625C5.28 15.4286 5 15.1406 5 14.7857C5 14.4309 5.28 14.1429 5.625 14.1429H8.125C8.47 14.1429 8.75 14.4309 8.75 14.7857C8.75 15.1406 8.47 15.4286 8.125 15.4286Z" fill="#603C59"/>
<path d="M28.4375 15.4286H26.875C26.53 15.4286 26.25 15.1406 26.25 14.7857C26.25 14.4309 26.53 14.1429 26.875 14.1429H27.9187L28.7612 9.52457C28.75 7.16143 26.7875 5.14286 24.375 5.14286H20.2712L18.2825 14.1429H21.875C22.22 14.1429 22.5 14.4309 22.5 14.7857C22.5 15.1406 22.22 15.4286 21.875 15.4286H17.5C17.31 15.4286 17.13 15.3399 17.0113 15.1869C16.8925 15.0351 16.8475 14.8346 16.89 14.6443L19.1625 4.35857C19.2275 4.06414 19.48 3.85714 19.7725 3.85714H24.375C27.4762 3.85714 30 6.453 30 9.64286L29.0512 14.904C28.9962 15.2087 28.7388 15.4286 28.4375 15.4286Z" fill="#603C59"/>
<path d="M24.375 18C22.6525 18 21.25 16.5587 21.25 14.7857C21.25 13.0127 22.6525 11.5714 24.375 11.5714C26.0975 11.5714 27.5 13.0127 27.5 14.7857C27.5 16.5587 26.0975 18 24.375 18ZM24.375 12.8571C23.3412 12.8571 22.5 13.7224 22.5 14.7857C22.5 15.849 23.3412 16.7143 24.375 16.7143C25.4088 16.7143 26.25 15.849 26.25 14.7857C26.25 13.7224 25.4088 12.8571 24.375 12.8571Z" fill="#603C59"/>
<path d="M10.625 18C8.9025 18 7.5 16.5587 7.5 14.7857C7.5 13.0127 8.9025 11.5714 10.625 11.5714C12.3475 11.5714 13.75 13.0127 13.75 14.7857C13.75 16.5587 12.3475 18 10.625 18ZM10.625 12.8571C9.59125 12.8571 8.75 13.7224 8.75 14.7857C8.75 15.849 9.59125 16.7143 10.625 16.7143C11.6588 16.7143 12.5 15.849 12.5 14.7857C12.5 13.7224 11.6588 12.8571 10.625 12.8571Z" fill="#603C59"/>
<path d="M8.125 3.85714H3.125C2.78 3.85714 2.5 3.56914 2.5 3.21429C2.5 2.85943 2.78 2.57143 3.125 2.57143H8.125C8.47 2.57143 8.75 2.85943 8.75 3.21429C8.75 3.56914 8.47 3.85714 8.125 3.85714Z" fill="#603C59"/>
<path d="M8.125 7.71429H1.875C1.53 7.71429 1.25 7.42629 1.25 7.07143C1.25 6.71657 1.53 6.42857 1.875 6.42857H8.125C8.47 6.42857 8.75 6.71657 8.75 7.07143C8.75 7.42629 8.47 7.71429 8.125 7.71429Z" fill="#603C59"/>
<path d="M8.125 11.5714H0.625C0.28 11.5714 0 11.2834 0 10.9286C0 10.5737 0.28 10.2857 0.625 10.2857H8.125C8.47 10.2857 8.75 10.5737 8.75 10.9286C8.75 11.2834 8.47 11.5714 8.125 11.5714Z" fill="#603C59"/>
<path d="M17.5 15.4286H13.125C12.78 15.4286 12.5 15.1406 12.5 14.7857C12.5 14.4309 12.78 14.1429 13.125 14.1429H17.0012L19.8413 1.28571H5.625C5.28 1.28571 5 0.997714 5 0.642857C5 0.288 5.28 0 5.625 0H20.625C20.815 0 20.995 0.0887145 21.1138 0.241715C21.2325 0.393429 21.2775 0.594 21.235 0.784286L18.11 14.9271C18.045 15.2216 17.7913 15.4286 17.5 15.4286Z" fill="#603C59"/>
</svg>
