<svg width="14" height="14" viewBox="0 0 14 14" fill="none" xmlns="http://www.w3.org/2000/svg">
<path d="M0.0386565 5.28801C-0.053228 5.58534 0.0211546 5.90326 0.235552 6.12055L3.05334 8.99327L2.38827 13.0485C2.33796 13.355 2.45609 13.6592 2.69893 13.8444C2.83457 13.9473 2.99427 14 3.15398 14C3.27649 14 3.40119 13.9679 3.51714 13.9062L7 11.9918L10.4829 13.9062C10.7476 14.0503 11.0604 14.0274 11.3011 13.8444C11.5417 13.6614 11.6599 13.3572 11.6117 13.0485L10.9467 8.99327L13.7644 6.12055C13.9788 5.90326 14.0532 5.58306 13.9613 5.28801C13.8695 4.99296 13.6288 4.78025 13.3335 4.7345L9.43713 4.14212L7.6957 0.452865C7.56443 0.173827 7.29753 0 6.99781 0C6.69809 0 6.43338 0.173827 6.29993 0.452865L4.5585 4.14212L0.662158 4.7345C0.371191 4.78025 0.130541 4.99067 0.0386565 5.28801ZM4.73789 5.04099C4.99167 5.00211 5.21044 4.83743 5.3242 4.59727L7 1.04296L8.67799 4.59727C8.79175 4.83743 9.01052 5.00439 9.2643 5.04099L13.0141 5.6105L10.3013 8.37573C10.1175 8.56328 10.0344 8.83088 10.0759 9.09619L10.7169 13.0004L7.36097 11.157C7.13564 11.0335 6.86436 11.0335 6.63684 11.157L3.28305 13.0004L3.92406 9.09619C3.96781 8.83088 3.88468 8.56328 3.70091 8.37573L0.985942 5.6105L4.73789 5.04099Z" fill="white"/>
</svg>
