<svg width="44" height="44" viewBox="0 0 44 44" fill="none" xmlns="http://www.w3.org/2000/svg">
<path d="M0 5C0 2.23858 2.23858 0 5 0H39C41.7614 0 44 2.23858 44 5V39C44 41.7614 41.7614 44 39 44H5C2.23858 44 0 41.7614 0 39V5Z" fill="white"/>
<path d="M12.3915 20.5592H19.0671C19.8348 20.5592 20.4586 19.9315 20.4586 19.1543V12.4049C20.4586 11.6277 19.8348 11 19.0671 11H12.3915C11.6238 11 11 11.6277 11 12.4049V19.1543C11 19.9315 11.6238 20.5592 12.3915 20.5592ZM12.0136 12.4049C12.0136 12.1957 12.1816 12.0223 12.3915 12.0223H19.0671C19.277 12.0223 19.4449 12.1957 19.4449 12.4049V19.1543C19.4449 19.3636 19.277 19.537 19.0671 19.537H12.3915C12.1816 19.537 12.0136 19.3636 12.0136 19.1543V12.4049Z" fill="#CE967E"/>
<path d="M20.4586 31.5951V24.8457C20.4586 24.0685 19.8348 23.4408 19.0671 23.4408H12.3915C11.6238 23.4408 11 24.0685 11 24.8457V31.5951C11 32.3723 11.6238 33 12.3915 33H19.0671C19.8348 33 20.4586 32.3723 20.4586 31.5951ZM12.0136 31.5951V24.8457C12.0136 24.6364 12.1816 24.463 12.3915 24.463H19.0671C19.277 24.463 19.4449 24.6364 19.4449 24.8457V31.5951C19.4449 31.8043 19.277 31.9777 19.0671 31.9777H12.3915C12.1816 31.9777 12.0136 31.8043 12.0136 31.5951Z" fill="#CE967E"/>
<path d="M23.5474 17.4027H33.006V18.425H23.5474" fill="#CE967E"/>
<path d="M23.5474 13.1342H33.006V14.1565H23.5474" fill="#CE967E"/>
<path d="M23.5474 29.3293H33.006V30.3516H23.5474" fill="#CE967E"/>
<path d="M23.5474 25.0609H33.006V26.0832H23.5474" fill="#CE967E"/>
</svg>
