<svg width="26" height="20" viewBox="0 0 26 20" fill="none" xmlns="http://www.w3.org/2000/svg">
<path d="M25.1875 1.81818H0.8125C0.597012 1.81818 0.390349 1.7224 0.237976 1.55192C0.0856024 1.38143 0 1.1502 0 0.909091C0 0.667985 0.0856024 0.436754 0.237976 0.266267C0.390349 0.0957791 0.597012 0 0.8125 0H25.1875C25.403 0 25.6097 0.0957791 25.762 0.266267C25.9144 0.436754 26 0.667985 26 0.909091C26 1.1502 25.9144 1.38143 25.762 1.55192C25.6097 1.7224 25.403 1.81818 25.1875 1.81818Z" fill="#603C59"/>
<path d="M25.1875 10.9091H0.8125C0.597012 10.9091 0.390349 10.8133 0.237976 10.6428C0.0856024 10.4723 0 10.2411 0 10C0 9.75889 0.0856024 9.52766 0.237976 9.35717C0.390349 9.18669 0.597012 9.09091 0.8125 9.09091H25.1875C25.403 9.09091 25.6097 9.18669 25.762 9.35717C25.9144 9.52766 26 9.75889 26 10C26 10.2411 25.9144 10.4723 25.762 10.6428C25.6097 10.8133 25.403 10.9091 25.1875 10.9091Z" fill="#603C59"/>
<path d="M25.1875 20H0.8125C0.597012 20 0.390349 19.9042 0.237976 19.7337C0.0856024 19.5632 0 19.332 0 19.0909C0 18.8498 0.0856024 18.6186 0.237976 18.4481C0.390349 18.2776 0.597012 18.1818 0.8125 18.1818H25.1875C25.403 18.1818 25.6097 18.2776 25.762 18.4481C25.9144 18.6186 26 18.8498 26 19.0909C26 19.332 25.9144 19.5632 25.762 19.7337C25.6097 19.9042 25.403 20 25.1875 20Z" fill="#603C59"/>
</svg>
