<svg width="37" height="40" viewBox="0 0 37 40" fill="none" xmlns="http://www.w3.org/2000/svg">
<g clip-path="url(#clip0_416_1925)">
<path d="M15.9767 8.68399L5.40511 27.614C4.48617 29.2594 5.03171 31.3633 6.6226 32.3138L16.7085 38.3416C16.4881 37.7748 16.3758 37.1701 16.3758 36.5594V14.6981C16.375 12.737 17.1093 10.8524 18.4249 9.44092L22.6695 4.90625L19.5027 5.82833C18.0141 6.27302 16.7509 7.29659 15.9767 8.68399Z" fill="#CE967E"/>
<path d="M0.974242 21.132C-0.324747 22.4756 -0.324747 24.6535 0.974242 25.997L3.63542 28.7495C3.72025 28.1043 3.93065 27.4842 4.25415 26.926C5.80429 24.1735 12.6568 11.8769 16.3758 5.271C15.9301 5.62882 16.7417 4.83749 0.974242 21.132Z" fill="#CE967E"/>
<path d="M35.3235 10.4111L31.5911 6.40633C30.757 7.34561 29.7383 8.08877 28.604 8.58765C28.3578 9.30415 27.5969 9.67831 26.9041 9.42371C26.2122 9.1691 25.8505 8.38207 26.0966 7.66558C26.2854 7.11595 26.7885 6.74867 27.3532 6.75039C27.7258 6.75297 28.0809 6.91811 28.3312 7.20454C28.7395 7.01445 29.1296 6.78479 29.4955 6.51643C29.9138 6.1913 30.3055 5.82918 30.6664 5.43609C31.2876 4.68949 31.8015 3.86031 32.1957 2.97437C32.5899 2.08842 32.8644 1.14571 33.0082 0.172028L31.6776 0C31.4099 1.61965 30.7354 3.13866 29.7217 4.40392C28.441 3.04146 26.3345 3.01049 25.0172 4.33511C24.9956 4.35747 24.9731 4.3807 24.9515 4.40392L19.383 10.4111C18.3094 11.5629 17.7089 13.0991 17.7064 14.6981V36.5594C17.7064 38.4595 19.1959 40 21.0329 40H33.6735C35.5106 40 37 38.4595 37 36.5594V14.6981C36.9975 13.0991 36.3962 11.5629 35.3235 10.4111ZM34.0852 21.2627H26.0359V29.8056C26.0359 30.4989 26.2272 31.0193 26.6097 31.3659C26.9915 31.7134 27.4788 31.8863 28.0717 31.8863C28.6015 31.8863 29.1088 31.7616 29.5928 31.5113C30.0759 31.2618 30.5084 30.9152 30.8909 30.4705C31.2735 30.0275 31.577 29.5149 31.8032 28.9343C32.0294 28.3537 32.1425 27.7327 32.1425 27.0712C32.1425 26.3453 31.967 25.7965 31.6161 25.4249C31.2652 25.0542 30.7861 24.8684 30.1774 24.8684C29.8813 24.8684 29.5811 24.9054 29.2768 24.9776C28.9724 25.0499 28.7112 25.1514 28.4925 25.2804V23.2711C28.7886 23.143 29.1013 23.0458 29.4289 22.9812C29.7566 22.9167 30.0685 22.8841 30.3645 22.8841C31.0348 22.8841 31.651 23.0337 32.2132 23.3322C32.7745 23.6307 33.2269 24.0908 33.5704 24.711C33.913 25.3329 34.0852 26.1268 34.0852 27.0953C34.0852 27.9985 33.9363 28.8577 33.6403 29.6723C33.3434 30.4868 32.9267 31.2094 32.3887 31.8381C31.8506 32.4677 31.2219 32.9632 30.5051 33.3262C29.7874 33.6891 28.9998 33.8706 28.1416 33.8706C27.3615 33.8706 26.6638 33.7098 26.0476 33.3872C25.4313 33.0647 24.9482 32.5968 24.5972 31.9835C24.2463 31.3702 24.0708 30.6202 24.0708 29.7325V21.2627H21.5435V19.4719H24.0708V18.2384C24.0708 17.3834 23.9652 16.6893 23.7548 16.1569C23.5444 15.6245 23.2833 15.1892 22.9714 14.8503H25.0771C25.3573 15.2047 25.5877 15.6528 25.7673 16.193C25.9461 16.734 26.0359 17.4153 26.0359 18.2384V19.4719H34.0852V21.2627Z" fill="#CE967E"/>
<path d="M26.0359 21.2627V29.8056C26.0359 30.4989 26.2272 31.0193 26.6097 31.3659C26.9915 31.7134 27.4788 31.8863 28.0717 31.8863C28.6015 31.8863 29.1088 31.7616 29.5928 31.5113C30.0759 31.2618 30.5084 30.9152 30.8909 30.4705C31.2735 30.0275 31.577 29.5149 31.8032 28.9343C32.0294 28.3537 32.1425 27.7327 32.1425 27.0712C32.1425 26.3453 31.967 25.7965 31.6161 25.4249C31.2652 25.0542 30.7861 24.8684 30.1774 24.8684C29.8813 24.8684 29.5811 24.9054 29.2768 24.9776C28.9724 25.0499 28.7112 25.1514 28.4925 25.2804V23.2711C28.7886 23.143 29.1013 23.0458 29.4289 22.9812C29.7566 22.9167 30.0685 22.8841 30.3645 22.8841C31.0348 22.8841 31.651 23.0337 32.2132 23.3322C32.7745 23.6307 33.2269 24.0908 33.5704 24.711C33.913 25.3329 34.0852 26.1268 34.0852 27.0953C34.0852 27.9985 33.9363 28.8577 33.6403 29.6723C33.3434 30.4868 32.9267 31.2094 32.3887 31.8381C31.8506 32.4677 31.2219 32.9632 30.5051 33.3262C29.7874 33.6891 28.9998 33.8706 28.1416 33.8706C27.3615 33.8706 26.6638 33.7098 26.0476 33.3872C25.4313 33.0647 24.9482 32.5968 24.5972 31.9835C24.2463 31.3702 24.0708 30.6202 24.0708 29.7325V21.2627H21.5435V19.4719H24.0708V18.2384C24.0708 17.3834 23.9652 16.6893 23.7548 16.1569C23.5444 15.6245 23.2833 15.1892 22.9714 14.8503H25.0771C25.3573 15.2047 25.5877 15.6528 25.7673 16.193C25.9461 16.734 26.0359 17.4153 26.0359 18.2384V19.4719H34.0852V21.2627H26.0359Z" fill="#FFF7F8"/>
</g>
<defs>
<clipPath id="clip0_416_1925">
<rect width="37" height="40" fill="white"/>
</clipPath>
</defs>
</svg>
