<svg width="38" height="36" viewBox="0 0 38 36" fill="none" xmlns="http://www.w3.org/2000/svg">
<path d="M8.88018 6.8528L24.029 2.77194L23.2267 1.1716C22.7019 0.131379 21.4217 -0.298186 20.3677 0.219818L6.80629 6.8528H8.88018Z" fill="#CE967E"/>
<path d="M28.7315 2.88986C28.5438 2.88986 28.356 2.91512 28.1682 2.96566L13.7406 6.8528H31.454L30.7883 4.44387C30.5323 3.50472 29.6703 2.88986 28.7315 2.88986Z" fill="#CE967E"/>
<path d="M33.6773 8.32679H2.1379C1.46367 8.32679 0.861988 8.63422 0.469399 9.11854C0.290174 9.34174 0.153622 9.59864 0.0768108 9.8808C0.0298709 10.0577 0 10.243 0 10.4325V33.8943C0 35.0567 0.955867 36 2.13363 36H33.673C34.8508 36 35.8066 35.0567 35.8066 33.8943V28.0194H23.1457C21.1443 28.0194 19.5185 26.4148 19.5185 24.4397V19.7566C19.5185 18.7879 19.911 17.9078 20.5469 17.2635C21.1102 16.6907 21.8655 16.3032 22.7104 16.2064C22.8512 16.1895 22.9963 16.1811 23.1414 16.1811H35.8066V10.4325C35.8109 9.27015 34.855 8.32679 33.6773 8.32679Z" fill="#CE967E"/>
<path d="M37.3044 18.1941C37.0911 18.0004 36.8393 17.853 36.5577 17.7561C36.34 17.6846 36.1096 17.6425 35.8664 17.6425H23.1457C21.9678 17.6425 21.012 18.5858 21.012 19.7482V24.4355C21.012 25.5978 21.9678 26.5412 23.1457 26.5412H35.8664C36.1096 26.5412 36.34 26.499 36.5577 26.4275C36.8393 26.3348 37.0911 26.1832 37.3044 25.9895C37.7312 25.6062 38 25.0503 38 24.4355V19.7482C38 19.1333 37.7312 18.5773 37.3044 18.1941ZM27.6007 22.5108C27.6007 23.092 27.1227 23.5637 26.5339 23.5637H25.8255C25.2366 23.5637 24.7587 23.092 24.7587 22.5108V21.8117C24.7587 21.4748 24.9166 21.1758 25.1683 20.9863C25.3518 20.8473 25.578 20.7589 25.8255 20.7589H26.5339C27.1227 20.7589 27.6007 21.2305 27.6007 21.8117V22.5108Z" fill="#CE967E"/>
</svg>
