<svg width="20" height="20" viewBox="0 0 20 20" fill="none" xmlns="http://www.w3.org/2000/svg">
<path d="M0 1.33333C0 0.596954 0.596954 0 1.33333 0H7.33333C8.06971 0 8.66667 0.596954 8.66667 1.33333V7.33333C8.66667 8.06971 8.06971 8.66667 7.33333 8.66667H1.33333C0.596954 8.66667 0 8.06971 0 7.33333V1.33333Z" fill="#CE967E"/>
<path d="M11.3333 1.33333C11.3333 0.596954 11.9303 0 12.6667 0H18.6667C19.403 0 20 0.596954 20 1.33333V7.33333C20 8.06971 19.403 8.66667 18.6667 8.66667H12.6667C11.9303 8.66667 11.3333 8.06971 11.3333 7.33333V1.33333Z" fill="#CE967E"/>
<path d="M0 12.6667C0 11.9303 0.596954 11.3333 1.33333 11.3333H7.33333C8.06971 11.3333 8.66667 11.9303 8.66667 12.6667V18.6667C8.66667 19.403 8.06971 20 7.33333 20H1.33333C0.596954 20 0 19.403 0 18.6667V12.6667Z" fill="#CE967E"/>
<path d="M11.3333 12.6667C11.3333 11.9303 11.9303 11.3333 12.6667 11.3333H18.6667C19.403 11.3333 20 11.9303 20 12.6667V18.6667C20 19.403 19.403 20 18.6667 20H12.6667C11.9303 20 11.3333 19.403 11.3333 18.6667V12.6667Z" fill="#CE967E"/>
</svg>
