<svg width="37" height="40" viewBox="0 0 37 40" fill="none" xmlns="http://www.w3.org/2000/svg">
<path d="M15.98 8.68L5.41 27.61C4.49 29.26 5.04 31.36 6.63 32.31L16.72 38.34C16.5 37.77 16.39 37.17 16.39 36.56V14.69C16.39 12.73 17.12 10.84 18.44 9.43L22.68 4.9L19.51 5.82C18.02 6.26 16.76 7.29 15.98 8.68Z" fill="#CE967E"/>
<path d="M0.969995 21.13C-0.330005 22.47 -0.330005 24.65 0.969995 25.99L3.63 28.74C3.71 28.09 3.93 27.47 4.25 26.92C5.8 24.17 12.65 11.87 16.37 5.26C15.92 5.62 16.74 4.83 0.969995 21.12V21.13Z" fill="#CE967E"/>
<path d="M35.32 10.41L31.59 6.4C30.76 7.34 29.74 8.08 28.6 8.58C28.36 9.3 27.6 9.67 26.9 9.42C26.21 9.17 25.85 8.38 26.1 7.66C26.28 7.11 26.79 6.74 27.35 6.75C27.72 6.75 28.08 6.91 28.33 7.2C28.74 7.01 29.13 6.78 29.49 6.51C29.91 6.19 30.3 5.83 30.66 5.43C31.29 4.69 31.8 3.86 32.19 2.97C32.59 2.08 32.86 1.14 33.01 0.17L31.68 0C31.41 1.62 30.73 3.13 29.72 4.4C28.44 3.04 26.33 3.01 25.02 4.33C24.99 4.35 24.97 4.38 24.95 4.4L19.38 10.41C18.31 11.56 17.71 13.1 17.7 14.69V36.56C17.7 38.46 19.19 40 21.03 40H33.67C35.51 40 37 38.46 37 36.56V14.69C37 13.1 36.39 11.56 35.32 10.41ZM34.08 21.26H26.03V29.8C26.03 30.49 26.23 31.02 26.61 31.36C26.99 31.71 27.48 31.88 28.07 31.88C28.6 31.88 29.11 31.76 29.59 31.51C30.07 31.26 30.51 30.91 30.89 30.47C31.27 30.02 31.58 29.51 31.8 28.93C32.03 28.35 32.14 27.73 32.14 27.07C32.14 26.34 31.97 25.79 31.61 25.42C31.26 25.05 30.78 24.86 30.18 24.86C29.88 24.86 29.58 24.9 29.28 24.97C28.97 25.05 28.71 25.15 28.49 25.28V23.27C28.79 23.14 29.1 23.04 29.43 22.98C29.76 22.91 30.07 22.88 30.36 22.88C31.03 22.88 31.65 23.03 32.21 23.33C32.77 23.63 33.23 24.09 33.57 24.71C33.91 25.33 34.08 26.12 34.08 27.09C34.08 27.99 33.93 28.85 33.64 29.67C33.34 30.48 32.93 31.21 32.39 31.83C31.85 32.46 31.22 32.96 30.5 33.32C29.79 33.69 29 33.87 28.14 33.87C27.36 33.87 26.66 33.71 26.05 33.38C25.43 33.06 24.95 32.59 24.6 31.98C24.24 31.37 24.07 30.62 24.07 29.73V21.26H21.54V19.47H24.07V18.23C24.07 17.38 23.96 16.69 23.75 16.15C23.54 15.62 23.28 15.19 22.97 14.85H25.08C25.36 15.2 25.59 15.65 25.77 16.19C25.94 16.73 26.03 17.41 26.03 18.23V19.47H34.08V21.26Z" fill="#CE967E"/>
</svg>
