<svg width="41" height="40" viewBox="0 0 41 40" fill="none" xmlns="http://www.w3.org/2000/svg">
<path d="M32.2258 8.53085C31.0455 7.38307 29.6906 6.40719 28.2179 5.65164C25.8556 4.43902 23.1866 3.79832 20.5 3.79832C17.8134 3.79832 15.1444 4.43902 12.7821 5.65164C11.3094 6.40719 9.95451 7.38307 8.77416 8.53085H32.2258Z" fill="#CE967E"/>
<path d="M8.77416 31.4692C9.95451 32.6169 11.3094 33.5928 12.7821 34.3484C16.0044 36.0009 18.9873 36.2001 20.5 36.2017C23.1866 36.2017 25.8556 35.561 28.2179 34.3484C29.6906 33.5928 31.0455 32.6169 32.2258 31.4692H8.77416Z" fill="#CE967E"/>
<path d="M17.0903 20.8876H18.615L17.8566 18.9257L17.0903 20.8876Z" fill="#CE967E"/>
<path d="M36.9304 10.8748H4.06957C1.82578 10.8748 0 12.6563 0 14.8456V25.1544C0 27.3437 1.82578 29.1252 4.06957 29.1252H36.9304C39.1742 29.1252 41 27.3437 41 25.1544V14.8456C41 12.6563 39.1742 10.8748 36.9304 10.8748ZM12.2912 22.4987C12.0029 24.0746 10.4662 25.2185 8.63883 25.2185C7.1718 25.2185 5.79365 24.6411 4.85834 23.634C4.4123 23.1542 4.44994 22.4135 4.94162 21.9783C5.4333 21.5439 6.19244 21.5806 6.63848 22.0596C7.11174 22.5698 7.85967 22.8745 8.63883 22.8745C9.34512 22.8745 9.85682 22.4659 9.92568 22.0869C10.017 21.5908 9.19697 21.2548 8.94312 21.1634C7.65146 20.6985 6.50475 20.2 6.4567 20.1789C6.39904 20.1539 6.34299 20.1242 6.29014 20.0906C5.36123 19.4999 4.88236 18.4639 5.04092 17.3872C5.20908 16.2441 6.06352 15.3128 7.27029 14.9581C8.7149 14.5338 10.3557 14.7971 11.6337 15.8879C12.0654 16.3738 12.0405 17.095 11.6081 17.5232C11.2213 17.9053 10.5863 17.9795 10.0874 17.6826C9.98895 17.6083 9.00478 16.8958 7.96377 17.2028C7.52174 17.3325 7.43525 17.6076 7.41924 17.7201C7.40563 17.8091 7.40803 17.9662 7.54736 18.0865C7.85967 18.2201 8.78377 18.6077 9.77514 18.964C11.9629 19.7515 12.509 21.3064 12.2912 22.4987ZM21.545 25.1435C21.2007 25.2716 20.8083 25.2341 20.5 25.0497C20.2766 24.9185 20.0964 24.7161 19.9971 24.4606L19.5214 23.2316H16.1758L15.6945 24.4637C15.4583 25.0685 14.764 25.3724 14.1442 25.1419C13.5244 24.9114 13.2137 24.2348 13.4491 23.6293L16.5642 15.6503C16.77 15.1284 17.2873 14.7815 17.8606 14.7815C18.4356 14.7815 18.9537 15.1292 19.1587 15.6535L22.2449 23.6332C22.4787 24.2387 22.1656 24.9146 21.545 25.1435ZM27.9104 25.2123C26.8854 25.2084 25.8604 25.2044 24.8354 25.2013C24.7401 25.188 24.387 25.1287 24.1059 24.8232C23.8096 24.5012 23.7984 24.1293 23.7984 24.0403V15.9535C23.7984 15.3058 24.3357 14.7815 24.9996 14.7815C25.6626 14.7815 26.2008 15.3058 26.2008 15.9535V22.8745C26.7685 22.8722 27.3363 22.8698 27.904 22.8683C28.5615 22.869 29.1012 23.3941 29.1052 24.0332C29.1092 24.6747 28.5703 25.2076 27.9104 25.2123ZM34.9965 18.828C35.6596 18.828 36.1977 19.3531 36.1977 20C36.1977 20.6469 35.6596 21.172 34.9965 21.172H32.9898V22.8378H35.252C35.915 22.8378 36.4532 23.3628 36.4532 24.0098C36.4532 24.6567 35.915 25.1818 35.252 25.1818H31.7886C31.1256 25.1818 30.5874 24.6567 30.5874 24.0098V15.9902C30.5874 15.3433 31.1256 14.8182 31.7886 14.8182H35.252C35.915 14.8182 36.4532 15.3433 36.4532 15.9902C36.4532 16.6372 35.915 17.1622 35.252 17.1622H32.9898V18.828H34.9965Z" fill="#CE967E"/>
<path d="M7.17612 4.01358C7.56979 4.52926 8.32853 4.63747 8.85696 4.25337C9.3854 3.86935 9.4963 3.12904 9.10272 2.61344L7.4664 0.469856C7.07274 -0.0458227 6.314 -0.154037 5.78556 0.230065C5.25713 0.614089 5.14622 1.3544 5.5398 1.87L7.17612 4.01358Z" fill="#CE967E"/>
<path d="M2.20807 7.34791L4.87211 8.07799C5.50657 8.25183 6.17522 7.88554 6.3534 7.2665C6.53157 6.64753 6.15617 5.99511 5.52179 5.82127L2.85775 5.09119C2.22329 4.91735 1.55464 5.28363 1.37646 5.90268C1.19829 6.52165 1.5737 7.17406 2.20807 7.34791Z" fill="#CE967E"/>
<path d="M32.143 4.25337C32.6715 4.63747 33.4303 4.52918 33.8239 4.01358L35.4602 1.87C35.8538 1.3544 35.7428 0.614089 35.2144 0.230065C34.686 -0.154037 33.9272 -0.0457445 33.5336 0.469856L31.8972 2.61344C31.5036 3.12904 31.6146 3.86935 32.143 4.25337Z" fill="#CE967E"/>
<path d="M34.6467 7.2665C34.8249 7.88547 35.4935 8.25183 36.128 8.07799L38.792 7.34791C39.4307 7.17289 39.803 6.52587 39.6236 5.90268C39.4442 5.27942 38.7812 4.91617 38.1423 5.09119L35.4783 5.82127C34.8439 5.99519 34.4685 6.64753 34.6467 7.2665Z" fill="#CE967E"/>
<path d="M8.85696 35.7466C8.32852 35.3625 7.56971 35.4708 7.17612 35.9864L5.5398 38.13C5.14622 38.6456 5.25721 39.3859 5.78556 39.7699C6.314 40.154 7.07282 40.0457 7.4664 39.5301L9.1028 37.3866C9.49638 36.871 9.3854 36.1307 8.85696 35.7466Z" fill="#CE967E"/>
<path d="M6.35332 32.7335C6.17394 32.1103 5.51098 31.7468 4.87203 31.922L2.20799 32.6521C1.57362 32.8259 1.19821 33.4783 1.37638 34.0973C1.55456 34.7163 2.22321 35.0827 2.85767 34.9088L5.52171 34.1787C6.16041 34.0037 6.53269 33.3566 6.35332 32.7335Z" fill="#CE967E"/>
<path d="M33.8239 35.9864C33.4302 35.4707 32.6715 35.3625 32.143 35.7466C31.6146 36.1307 31.5037 36.871 31.8973 37.3866L33.5337 39.5301C33.9273 40.0458 34.6861 40.154 35.2145 39.7699C35.743 39.3859 35.8539 38.6456 35.4603 38.13L33.8239 35.9864Z" fill="#CE967E"/>
<path d="M38.7919 32.6521L36.1279 31.922C35.4934 31.7482 34.8248 32.1145 34.6466 32.7335C34.4684 33.3525 34.8438 34.0049 35.4782 34.1787L38.1423 34.9088C38.7767 35.0827 39.4454 34.7164 39.6235 34.0973C39.8017 33.4783 39.4263 32.8259 38.7919 32.6521Z" fill="#CE967E"/>
</svg>
