<svg width="20" height="20" viewBox="0 0 20 20" fill="none" xmlns="http://www.w3.org/2000/svg">
<path d="M19.3182 8.41914C18.9418 8.41914 18.6364 8.12547 18.6364 7.76362C18.6364 5.25342 17.6201 2.89445 15.7746 1.11931C15.5082 0.863247 15.5082 0.448108 15.7746 0.192046C16.0409 -0.0640154 16.4727 -0.0640154 16.7392 0.192046C18.8419 2.21445 20 4.9039 20 7.76362C20 8.12547 19.6945 8.41914 19.3182 8.41914Z" fill="#0D834D"/>
<path d="M0.68182 8.41914C0.305454 8.41914 0 8.12547 0 7.76362C0 4.9039 1.15823 2.21445 3.26178 0.192846C3.52812 -0.0632152 3.96008 -0.0632152 4.22642 0.192846C4.49275 0.448908 4.49275 0.864207 4.22642 1.12027C2.38004 2.89445 1.36364 5.25342 1.36364 7.76362C1.36364 8.12547 1.05819 8.41914 0.68182 8.41914Z" fill="#0D834D"/>
<path d="M10.0001 20C8.12008 20 6.59098 18.5299 6.59098 16.7224C6.59098 16.3606 6.89644 16.0669 7.2728 16.0669C7.64917 16.0669 7.95462 16.3606 7.95462 16.7224C7.95462 17.8072 8.87182 18.689 10.0001 18.689C11.1282 18.689 12.0455 17.8072 12.0455 16.7224C12.0455 16.3606 12.351 16.0669 12.7274 16.0669C13.1037 16.0669 13.4092 16.3606 13.4092 16.7224C13.4092 18.5299 11.8801 20 10.0001 20Z" fill="#0D834D"/>
<path d="M17.5001 17.3779H2.50006C1.62265 17.3779 0.909038 16.6918 0.909038 15.8484C0.909038 15.4008 1.11179 14.977 1.46551 14.6859C2.84813 13.5628 3.63632 11.9302 3.63632 10.2005V7.76362C3.63632 4.39001 6.49094 1.64551 10.0001 1.64551C13.5091 1.64551 16.3637 4.39001 16.3637 7.76362V10.2005C16.3637 11.9302 17.1519 13.5628 18.5255 14.6798C18.8882 14.977 19.091 15.4008 19.091 15.8484C19.091 16.6918 18.3773 17.3779 17.5001 17.3779ZM10.0001 2.95655C7.24267 2.95655 4.99996 5.11275 4.99996 7.76362V10.2005C4.99996 12.3164 4.03549 14.3145 2.35458 15.6806C2.32278 15.7068 2.27268 15.7611 2.27268 15.8484C2.27268 15.9672 2.37638 16.0669 2.50006 16.0669H17.5001C17.6236 16.0669 17.7273 15.9672 17.7273 15.8484C17.7273 15.7611 17.6774 15.7068 17.6473 15.6823C15.9645 14.3145 15 12.3164 15 10.2005V7.76362C15 5.11275 12.7573 2.95655 10.0001 2.95655Z" fill="#0D834D"/>
<path d="M10.0001 2.95655C9.62372 2.95655 9.31826 2.66288 9.31826 2.30103V0.677953C9.31826 0.316106 9.62372 0.0224359 10.0001 0.0224359C10.3764 0.0224359 10.6819 0.316106 10.6819 0.677953V2.30103C10.6819 2.66288 10.3764 2.95655 10.0001 2.95655Z" fill="#0D834D"/>
</svg>
