<svg width="32" height="40" viewBox="0 0 32 40" fill="none" xmlns="http://www.w3.org/2000/svg">
<path d="M21.3801 23.736C23.74 22.9342 25.7937 21.6338 25.9193 19.8511C24.5148 21.2329 22.6315 22.0484 20.6512 22.0484C19.9786 22.0484 19.3123 21.9556 18.6619 21.7716C18.3333 21.94 17.9721 22.0284 17.6002 22.0284C16.2707 22.0284 15.1892 20.908 15.1892 19.5311C15.1892 18.1551 16.2707 17.0347 17.6002 17.0347C18.5873 17.0347 19.4376 17.6493 19.8078 18.5373C20.0849 18.5947 20.3685 18.624 20.6542 18.624C21.6967 18.624 22.6967 18.2351 23.4719 17.552C23.1283 17.056 22.9322 16.452 22.9322 15.8222V12.1778C22.9322 11.4356 23.1939 10.7418 23.6495 10.2089C22.8468 6.31467 20.0837 3.448 16 3.448C11.9163 3.448 9.15358 6.316 8.35049 10.2107C8.80566 10.744 9.06693 11.4364 9.06693 12.1778V15.8236C9.06693 17.4573 7.78679 18.7862 6.21107 18.7942C6.20463 18.8142 6.19648 18.8373 6.19048 18.8569C5.49807 21.1573 7.85457 22.7907 10.6216 23.7347C4.25225 28.6351 0 22.8502 0 35.0107C0 38.3782 8.67825 40 15.9678 40C23.2578 40 32 38.3782 32 35.0102C32 22.8511 27.7486 28.6342 21.3801 23.736Z" fill="#CE967E"/>
<path d="M6.11154 17.6458H6.1982C7.16988 17.6458 7.95753 16.8293 7.95753 15.8236V12.1778C7.95753 11.4618 7.5577 10.844 6.97941 10.5453C7.22952 5.61556 11.1789 1.68311 16 1.68311C20.8198 1.68311 24.7701 5.61556 25.0193 10.5449C24.4406 10.8436 24.042 11.4613 24.042 12.1773V15.8227C24.042 16.5507 24.4552 17.1773 25.0511 17.4698C24.0047 18.9542 22.3501 19.7738 20.6547 19.7738C20.0652 19.7738 19.4702 19.6742 18.8949 19.4693C18.8636 18.7551 18.2977 18.184 17.6002 18.184C16.8803 18.184 16.299 18.7867 16.299 19.5311C16.299 20.2756 16.8803 20.8791 17.6002 20.8791C17.9447 20.8791 18.2553 20.7378 18.4882 20.5116C19.1943 20.7716 19.9262 20.8987 20.6508 20.8987C22.8782 20.8987 25.045 19.7164 26.2608 17.6031C27.0541 17.4267 27.6482 16.6969 27.6482 15.8231V12.1778C27.6482 11.4511 27.2368 10.8262 26.6439 10.5329C26.3878 4.68044 21.7117 0 16 0C10.287 0 5.61218 4.68044 5.35435 10.5329C4.76276 10.8267 4.35135 11.4511 4.35135 12.1778V15.8236C4.35092 16.8293 5.13857 17.6458 6.11154 17.6458Z" fill="#CE967E"/>
</svg>
