<svg width="36" height="44" viewBox="0 0 36 44" fill="none" xmlns="http://www.w3.org/2000/svg">
<path fill-rule="evenodd" clip-rule="evenodd" d="M24.6871 36.6494C23.6295 37.0438 22.4682 37.0591 21.4006 36.6927L24.4983 44L27.3681 38.0024L33.6703 40.1016L29.6448 30.6055C29.2354 30.7035 28.8624 30.9163 28.5696 31.2191C28.2768 31.5219 28.0763 31.902 27.9916 32.3148L27.8276 33.0594C27.6564 33.8776 27.2774 34.6377 26.7273 35.2666C26.1772 35.8954 25.4746 36.3717 24.6871 36.6494ZM6.34764 30.6055L2.32165 40.1016L8.62397 38.0024L11.4943 44L14.592 36.6928C13.9322 36.9148 13.2333 36.9955 12.5404 36.9295C11.8475 36.8635 11.1763 36.6523 10.5702 36.3097C9.96412 35.967 9.4368 35.5006 9.02247 34.9406C8.60813 34.3807 8.31605 33.7397 8.16517 33.0594L8.00124 32.3148C7.91653 31.9019 7.71596 31.5218 7.42308 31.2191C7.13021 30.9163 6.75707 30.7035 6.34764 30.6055ZM17.9961 7.81468C16.0226 7.81468 14.0933 8.40066 12.4524 9.49851C10.8114 10.5964 9.53244 12.1568 8.77717 13.9825C8.02191 15.8082 7.82427 17.8171 8.20926 19.7552C8.59425 21.6934 9.54457 23.4737 10.9401 24.871C12.3355 26.2684 14.1135 27.22 16.0491 27.6056C17.9847 27.9912 19.9911 27.7934 21.8144 27.0372C23.6378 26.281 25.1962 25.0005 26.2928 23.3574C27.3893 21.7144 27.9746 19.7827 27.9747 17.8066C27.9747 16.4945 27.7167 15.1952 27.2152 13.9829C26.7138 12.7706 25.9788 11.6691 25.0522 10.7413C24.1256 9.81343 23.0255 9.07742 21.8148 8.57528C20.6042 8.07313 19.3066 7.81468 17.9961 7.81468ZM23.8468 15.3437L17.9369 22.2468C17.7963 22.4284 17.6176 22.5768 17.4135 22.6818C17.2093 22.7867 16.9847 22.8456 16.7554 22.8542C16.5261 22.8628 16.2977 22.821 16.0863 22.7317C15.8749 22.6424 15.6856 22.5077 15.5317 22.3372L12.1699 18.5878C12.0322 18.4347 11.926 18.2558 11.8574 18.0616C11.7887 17.8673 11.759 17.6614 11.7698 17.4557C11.7806 17.2499 11.8318 17.0483 11.9204 16.8623C12.0091 16.6764 12.1334 16.5097 12.2864 16.3718C12.4394 16.234 12.6179 16.1277 12.8119 16.0589C13.0059 15.9902 13.2116 15.9604 13.4171 15.9712C13.6226 15.9821 13.8239 16.0333 14.0097 16.1221C14.1954 16.2108 14.3618 16.3353 14.4995 16.4885L16.6708 18.9097L21.4682 13.3056C21.6019 13.1492 21.765 13.0207 21.9483 12.9275C22.1315 12.8342 22.3314 12.778 22.5363 12.7621C22.7413 12.7461 22.9473 12.7708 23.1428 12.8346C23.3382 12.8984 23.5192 13.0001 23.6754 13.134C23.8316 13.2678 23.9599 13.4311 24.053 13.6146C24.1462 13.7981 24.2023 13.9982 24.2182 14.2034C24.2341 14.4086 24.2095 14.615 24.1458 14.8107C24.0821 15.0064 23.9805 15.1876 23.8468 15.344V15.3437ZM35.9376 15.0743C35.8405 14.4728 35.5892 13.9069 35.208 13.432C34.8269 12.9571 34.3292 12.5894 33.7635 12.365L33.0597 12.0741C32.3209 11.776 31.7031 11.2387 31.3049 10.548C30.9066 9.85727 30.7509 9.0529 30.8625 8.26321L30.9629 7.50722C31.0427 6.90501 30.9695 6.29236 30.7499 5.72605C30.5303 5.15975 30.1715 4.65812 29.7067 4.26766C29.2419 3.8772 28.6862 3.61055 28.091 3.49243C27.4959 3.37431 26.8806 3.40854 26.3022 3.59195L25.5758 3.82209C24.8185 4.06926 24.0003 4.05532 23.2518 3.78249C22.5033 3.50966 21.8677 2.99367 21.4463 2.31685L21.038 1.67355C20.7127 1.16075 20.2633 0.738499 19.7316 0.445944C19.1998 0.153388 18.6029 0 17.9962 0C17.3894 0 16.7925 0.153388 16.2607 0.445944C15.729 0.738499 15.2796 1.16075 14.9543 1.67355L14.5461 2.31685C14.1246 2.9937 13.4889 3.5097 12.7403 3.7825C11.9917 4.0553 11.1735 4.06917 10.4161 3.82191L9.69017 3.59195C9.11176 3.40855 8.49646 3.37435 7.90133 3.4925C7.30619 3.61065 6.75048 3.87734 6.28571 4.26784C5.82093 4.65834 5.46214 5.16002 5.2426 5.72636C5.02305 6.29269 4.94986 6.90537 5.0298 7.50758L5.13015 8.26339C5.24182 9.0531 5.08612 9.8575 4.68788 10.5483C4.28965 11.239 3.67182 11.7763 2.933 12.0744L2.2291 12.3653C1.66826 12.5971 1.17493 12.9668 0.794837 13.4404C0.414745 13.9139 0.160199 14.4758 0.0547981 15.0741C-0.0506032 15.6723 -0.00344848 16.2876 0.191891 16.8627C0.38723 17.4379 0.72443 17.9543 1.17223 18.3642L1.73434 18.8788C2.32684 19.4118 2.72394 20.1283 2.86226 20.9138C3.00059 21.6992 2.87218 22.5084 2.49752 23.2123L2.14516 23.888C1.86433 24.4265 1.72382 25.0273 1.73667 25.6347C1.74952 26.2421 1.91531 26.8364 2.21866 27.3626C2.52202 27.8887 2.95313 28.3296 3.47203 28.6445C3.99093 28.9593 4.58081 29.1379 5.187 29.1637L5.94776 29.1959C6.74386 29.223 7.50796 29.5163 8.11817 30.029C8.72837 30.5416 9.14952 31.2442 9.31442 32.0245L9.47835 32.7691C9.60894 33.3623 9.88701 33.913 10.2868 34.37C10.6865 34.827 11.1951 35.1755 11.7652 35.3832C12.3353 35.591 12.9486 35.6513 13.5482 35.5585C14.1478 35.4657 14.7143 35.2228 15.1952 34.8523L15.7987 34.3874C16.4259 33.8957 17.1995 33.6285 17.9961 33.6285C18.7927 33.6285 19.5663 33.8957 20.1935 34.3874L20.7971 34.8523C21.278 35.2227 21.8444 35.4656 22.444 35.5584C23.0436 35.6512 23.6569 35.5909 24.227 35.3832C24.7972 35.1754 25.3057 34.8269 25.7055 34.3699C26.1052 33.913 26.3833 33.3623 26.514 32.7691L26.678 32.0245C26.8428 31.2441 27.2639 30.5415 27.8741 30.0289C28.4844 29.5162 29.2485 29.2229 30.0446 29.1959L30.8051 29.1636C31.4113 29.1379 32.0012 28.9593 32.5201 28.6445C33.039 28.3297 33.4702 27.8888 33.7736 27.3626C34.0769 26.8365 34.2427 26.2422 34.2556 25.6348C34.2685 25.0274 34.128 24.4266 33.8472 23.8881L33.4948 23.2122C33.1201 22.5084 32.9917 21.6991 33.13 20.9136C33.2683 20.1282 33.6654 19.4117 34.2579 18.8786L34.8199 18.3641C35.2748 17.9596 35.6169 17.4437 35.8129 16.867C36.0088 16.2903 36.0518 15.6726 35.9376 15.0743ZM17.9961 29.1446C15.7565 29.1446 13.5671 28.4796 11.7049 27.2337C9.84274 25.9878 8.39135 24.2169 7.53429 22.1451C6.67724 20.0732 6.45302 17.7934 6.88998 15.594C7.32695 13.3945 8.40547 11.3742 9.98917 9.78853C11.5729 8.20284 13.5906 7.123 15.7872 6.68555C17.9839 6.24811 20.2607 6.47271 22.3298 7.33096C24.399 8.1892 26.1675 9.64255 27.4117 11.5072C28.6559 13.3718 29.3199 15.5641 29.3199 17.8066C29.3196 20.8136 28.1265 23.6974 26.0029 25.8237C23.8794 27.9499 20.9993 29.1445 17.9961 29.1446Z" fill="#CE967E"/>
</svg>
