<svg width="16" height="16" viewBox="0 0 16 16" fill="none" xmlns="http://www.w3.org/2000/svg">
<path d="M0 1.06667C0 0.477563 0.477563 0 1.06667 0H5.86667C6.45577 0 6.93333 0.477563 6.93333 1.06667V5.86667C6.93333 6.45577 6.45577 6.93333 5.86667 6.93333H1.06667C0.477563 6.93333 0 6.45577 0 5.86667V1.06667Z" fill="#B63D5E"/>
<path d="M9.06667 1.06667C9.06667 0.477563 9.54423 0 10.1333 0H14.9333C15.5224 0 16 0.477563 16 1.06667V5.86667C16 6.45577 15.5224 6.93333 14.9333 6.93333H10.1333C9.54423 6.93333 9.06667 6.45577 9.06667 5.86667V1.06667Z" fill="#B63D5E"/>
<path d="M0 10.1333C0 9.54423 0.477563 9.06667 1.06667 9.06667H5.86667C6.45577 9.06667 6.93333 9.54423 6.93333 10.1333V14.9333C6.93333 15.5224 6.45577 16 5.86667 16H1.06667C0.477563 16 0 15.5224 0 14.9333V10.1333Z" fill="#B63D5E"/>
<path d="M9.06667 10.1333C9.06667 9.54423 9.54423 9.06667 10.1333 9.06667H14.9333C15.5224 9.06667 16 9.54423 16 10.1333V14.9333C16 15.5224 15.5224 16 14.9333 16H10.1333C9.54423 16 9.06667 15.5224 9.06667 14.9333V10.1333Z" fill="#B63D5E"/>
</svg>
